<svg xmlns="http://www.w3.org/2000/svg" width="255.718" height="126.727" viewBox="0 0 255.718 126.727">
  <g id="icono_portada1" transform="translate(-49.2 -31.674)">
    <g id="Grupo_1071801" data-name="Grupo 1071801" transform="translate(169.729 42.644)">
      <g id="Grupo_1071789" data-name="Grupo 1071789" transform="translate(7.151 26.398)">
        <path id="Trazado_719888" data-name="Trazado 719888" d="M375.975,131.378a33.863,33.863,0,0,1,.631,7.572l-3.076,1.183s-1.893,7.73,9.978,5.364c2.287-.473,8.953-5.521,8.953-5.521l-5.285-1.5s-.513-7.651-.71-11.477A89.269,89.269,0,0,1,375.975,131.378Z" transform="translate(-373.233 -126.773)" fill="#fff"/>
        <path id="Trazado_719889" data-name="Trazado 719889" d="M379.2,145.819c-2.287,0-3.983-.552-5.048-1.656a5.231,5.231,0,0,1-1.1-4.417c0-.079.079-.118.118-.158l2.918-1.144a36.359,36.359,0,0,0-.631-7.375c-.039-.118.039-.2.158-.237a101.882,101.882,0,0,0,10.53-4.378.179.179,0,0,1,.2,0c.079.039.079.118.118.158.2,3.471.631,10.254.71,11.319l5.127,1.459a.308.308,0,0,1,.158.158c0,.079,0,.158-.079.2-.276.2-6.744,5.088-9.071,5.561A18.719,18.719,0,0,1,379.2,145.819Zm-5.758-5.876a4.619,4.619,0,0,0,1.025,3.9c1.5,1.578,4.457,1.932,8.716,1.065,1.932-.394,7.178-4.22,8.558-5.245l-4.851-1.38a.262.262,0,0,1-.158-.2c0-.079-.473-7.3-.67-11.161a99.165,99.165,0,0,1-10.1,4.22,34.065,34.065,0,0,1,.592,7.454.217.217,0,0,1-.118.2Zm2.879-1.341Z" transform="translate(-372.947 -126.425)"/>
      </g>
      <g id="Grupo_1071791" data-name="Grupo 1071791">
        <g id="Grupo_1071790" data-name="Grupo 1071790">
          <path id="Trazado_719890" data-name="Trazado 719890" d="M358.067,69.508C357,69.784,355.9,68.68,355.9,67.5a3.149,3.149,0,0,1,1.775-2.721,10.123,10.123,0,0,1,3.273-.71,2.884,2.884,0,0,1,1.065-3.195,4.489,4.489,0,0,1,3.313-.749,3.975,3.975,0,0,1,2.13.828,2.742,2.742,0,0,1,.986,2.13,4.215,4.215,0,0,1,4.141-1.735,4.449,4.449,0,0,1,2.8,3.51,3.757,3.757,0,0,1,2.879-1.617c2.287.118,2.8,2.051,1.775,4.535a2.622,2.622,0,0,1,3.589,1.7,5.225,5.225,0,0,1-.947,4.417,2.312,2.312,0,0,1-.67.513c-.355,1.932-.789,3.983-1.459,6.547a24.6,24.6,0,0,1-2.287,5.6,3.479,3.479,0,0,1-1.735,1.617c-.039-.789-.907-1.223-1.025-2.011-.158-.986.473-1.854-.118-2.721a13.919,13.919,0,0,1-2.248-5.364,6.772,6.772,0,0,1,.434-4.575,5.175,5.175,0,0,1,1.065-1.38,6.541,6.541,0,0,1-.473-1.223,4.423,4.423,0,0,1-2.84,2.485,2.408,2.408,0,0,1-3.076-1.262,4.925,4.925,0,0,1-3.234,2.958c-1.144.118-1.578-.394-2.051-1.5a10.56,10.56,0,0,1-2.8,2.209,3.242,3.242,0,0,1-4.062-2.051A3.376,3.376,0,0,1,358.067,69.508Z" transform="translate(-355.47 -59.842)" fill="#ffd42e"/>
          <path id="Trazado_719891" data-name="Trazado 719891" d="M375.75,88.008a.145.145,0,0,1-.118-.039c-.079-.039-.079-.079-.118-.158a1.69,1.69,0,0,0-.473-.907,2.5,2.5,0,0,1-.552-1.065,3.88,3.88,0,0,1,.039-1.183,1.886,1.886,0,0,0-.158-1.459,14.339,14.339,0,0,1-2.287-5.442,7.017,7.017,0,0,1,.434-4.693,5.345,5.345,0,0,1,.986-1.341,3.414,3.414,0,0,1-.276-.67,4.382,4.382,0,0,1-2.721,2.169,2.741,2.741,0,0,1-3.116-.907,4.978,4.978,0,0,1-3.234,2.6c-1.144.118-1.656-.394-2.13-1.38-.158.158-.355.316-.513.473a6.783,6.783,0,0,1-2.169,1.578,3.245,3.245,0,0,1-2.563-.158,3.444,3.444,0,0,1-1.814-2.051,3.746,3.746,0,0,1,1.459-4.1,3.144,3.144,0,0,1-.631-.316,2.58,2.58,0,0,1-.947-1.814,3.393,3.393,0,0,1,1.893-2.918,8.112,8.112,0,0,1,2.721-.67c.118,0,.237-.039.394-.039a3.2,3.2,0,0,1,1.183-3.195,4.784,4.784,0,0,1,3.471-.789,4.149,4.149,0,0,1,2.209.868,2.927,2.927,0,0,1,1.025,1.775,4.368,4.368,0,0,1,4.023-1.42,4.5,4.5,0,0,1,2.879,3.234,3.485,3.485,0,0,1,2.721-1.341,2.549,2.549,0,0,1,2.09,1.065,3.823,3.823,0,0,1,.039,3.313,2.753,2.753,0,0,1,1.775.118A2.885,2.885,0,0,1,382.928,69a5.45,5.45,0,0,1-1.025,4.614,2.946,2.946,0,0,1-.631.513c-.394,2.051-.828,4.141-1.459,6.468a24.3,24.3,0,0,1-2.327,5.64,3.577,3.577,0,0,1-1.854,1.7C375.829,88.008,375.79,88.008,375.75,88.008ZM373.384,70.34h0c.118,0,.158.079.2.158a8.22,8.22,0,0,0,.473,1.183c.039.079.039.2-.039.237a4.2,4.2,0,0,0-1.025,1.341,6.487,6.487,0,0,0-.394,4.417,13.838,13.838,0,0,0,2.248,5.285,2.1,2.1,0,0,1,.2,1.735A3.224,3.224,0,0,0,375,85.76a2.1,2.1,0,0,0,.473.868,3.152,3.152,0,0,1,.513.868,3.291,3.291,0,0,0,1.42-1.42,22.938,22.938,0,0,0,2.287-5.561c.631-2.366,1.065-4.457,1.459-6.547,0-.079.039-.118.118-.158a2.912,2.912,0,0,0,.631-.473,5.079,5.079,0,0,0,.907-4.22,2.468,2.468,0,0,0-1.42-1.578,2.261,2.261,0,0,0-1.893.039.206.206,0,0,1-.276-.276,3.831,3.831,0,0,0,.158-3.392,2.083,2.083,0,0,0-1.735-.868,3.4,3.4,0,0,0-2.682,1.538c-.039.079-.158.079-.237.079-.079-.039-.158-.079-.158-.2a4.152,4.152,0,0,0-2.642-3.352,4.057,4.057,0,0,0-3.944,1.7c-.039.079-.158.079-.237.079-.079-.039-.158-.118-.118-.2a2.41,2.41,0,0,0-.907-1.972,3.718,3.718,0,0,0-2.011-.749,4.139,4.139,0,0,0-3.155.71,2.761,2.761,0,0,0-.986,2.958c.039.079,0,.118,0,.2a.544.544,0,0,1-.158.118c-.2.039-.434.039-.631.079a7.65,7.65,0,0,0-2.563.631,2.969,2.969,0,0,0-1.7,2.524,1.967,1.967,0,0,0,.789,1.5,1.272,1.272,0,0,0,1.144.276.2.2,0,1,1,.079.394,3.313,3.313,0,0,0-1.972,3.944,3.033,3.033,0,0,0,1.578,1.775,2.891,2.891,0,0,0,2.209.158,5.824,5.824,0,0,0,2.011-1.5c.237-.237.473-.434.71-.67a.173.173,0,0,1,.2-.039c.079,0,.118.079.158.118.434,1.025.789,1.5,1.814,1.38a4.7,4.7,0,0,0,3.037-2.761c.039-.079.079-.158.2-.158.079,0,.2.039.2.158a2.2,2.2,0,0,0,2.8,1.1,4.359,4.359,0,0,0,2.721-2.366A.2.2,0,0,1,373.384,70.34Z" transform="translate(-354.814 -59.49)"/>
        </g>
      </g>
      <g id="Grupo_1071793" data-name="Grupo 1071793" transform="translate(3.276 10.889)">
        <g id="Grupo_1071792" data-name="Grupo 1071792">
          <path id="Trazado_719892" data-name="Trazado 719892" d="M364.641,92.566v-.2c.079-.039.158-.039.2-.079a9.973,9.973,0,0,0,2.8-2.209c.473,1.1.907,1.617,2.051,1.5a4.925,4.925,0,0,0,3.234-2.958A2.444,2.444,0,0,0,376,89.885a4.522,4.522,0,0,0,2.84-2.485,6.024,6.024,0,0,0,2.209,3.273,5.545,5.545,0,0,0,1.459.71,3.066,3.066,0,0,0,.079.631,21.264,21.264,0,0,1,.118,4.141c1.3-1.065,2.366-.907,3.195-.079a2.1,2.1,0,0,1-.039,2.918,3.913,3.913,0,0,1-3.392.868c-.315,2.051-.789,6.152-2.209,7.967a9.094,9.094,0,0,1-6.981,3.195,9.9,9.9,0,0,1-7.257-2.958c-1.932-2.13-2.327-4.969-2.169-7.612C363.97,97.851,364.641,95.248,364.641,92.566Z" transform="translate(-363.545 -87.282)" fill="#fff"/>
          <path id="Trazado_719893" data-name="Trazado 719893" d="M372.657,111.079a9.9,9.9,0,0,1-7.257-3.037c-1.7-1.854-2.445-4.5-2.248-7.73.079-1.144.237-2.327.394-3.471a33.494,33.494,0,0,0,.434-4.417v-.2a.262.262,0,0,1,.158-.2c.079,0,.118-.039.2-.079a5.824,5.824,0,0,0,2.011-1.5c.237-.237.473-.434.71-.67a.173.173,0,0,1,.2-.039c.079,0,.118.079.158.118.434,1.025.789,1.5,1.814,1.38a4.7,4.7,0,0,0,3.037-2.761c.039-.079.079-.158.2-.158.079,0,.2.039.2.158a2.2,2.2,0,0,0,2.8,1.1,4.359,4.359,0,0,0,2.721-2.366.217.217,0,0,1,.2-.118.17.17,0,0,1,.158.158,5.911,5.911,0,0,0,2.13,3.155,4.99,4.99,0,0,0,1.38.67c.079.039.158.079.158.2.039.237.039.473.079.631v.039a22.9,22.9,0,0,1,.158,3.668,2.212,2.212,0,0,1,3.076.237,2.25,2.25,0,0,1-.039,3.195,3.913,3.913,0,0,1-3.352.947c-.039.158-.039.316-.079.473-.315,2.287-.828,5.719-2.169,7.375a9.362,9.362,0,0,1-7.138,3.273C372.736,111.079,372.7,111.079,372.657,111.079Zm-8.243-18.694h0a34.628,34.628,0,0,1-.434,4.535,32.592,32.592,0,0,0-.394,3.431q-.3,4.733,2.13,7.454a9.508,9.508,0,0,0,7.1,2.918,8.934,8.934,0,0,0,6.783-3.116c1.262-1.578,1.775-5.088,2.051-7.178l.118-.71a.3.3,0,0,1,.079-.158.237.237,0,0,1,.158-.039,3.681,3.681,0,0,0,3.195-.789,1.822,1.822,0,0,0,.039-2.6c-.828-.828-1.814-.828-2.879.079a.261.261,0,0,1-.237.039.217.217,0,0,1-.118-.2,17.51,17.51,0,0,0-.118-4.023V91.99c0-.158-.039-.316-.039-.513a4.991,4.991,0,0,1-1.38-.67,5.837,5.837,0,0,1-2.13-2.918,4.382,4.382,0,0,1-2.721,2.169,2.741,2.741,0,0,1-3.116-.907,4.978,4.978,0,0,1-3.234,2.6c-1.144.118-1.656-.394-2.13-1.38-.158.158-.355.316-.513.473a6.784,6.784,0,0,1-2.169,1.578C364.494,92.345,364.454,92.385,364.415,92.385Zm-.2,0Z" transform="translate(-363.122 -87.1)"/>
        </g>
      </g>
      <g id="Grupo_1071794" data-name="Grupo 1071794" transform="translate(6.813 19.364)">
        <path id="Trazado_719894" data-name="Trazado 719894" d="M372.093,109.264a.613.613,0,0,1,.552-.67.569.569,0,0,1,.67.513.617.617,0,0,1-1.223.158Z" transform="translate(-372.089 -108.589)"/>
      </g>
      <g id="Grupo_1071795" data-name="Grupo 1071795" transform="translate(15.568 19.837)">
        <path id="Trazado_719895" data-name="Trazado 719895" d="M394.293,110.464a.614.614,0,0,1,.552-.67.569.569,0,0,1,.67.513.617.617,0,0,1-1.223.158Z" transform="translate(-394.289 -109.789)"/>
      </g>
      <g id="Grupo_1071796" data-name="Grupo 1071796" transform="translate(12.013 29.241)">
        <path id="Trazado_719896" data-name="Trazado 719896" d="M386.231,135.119a2.543,2.543,0,0,1-.789-.118c-.118-.039-.2-.158-.158-.237.039-.118.158-.2.237-.158a2.861,2.861,0,0,0,2.879-.907.2.2,0,1,1,.315.237A3.081,3.081,0,0,1,386.231,135.119Z" transform="translate(-385.274 -133.634)"/>
      </g>
      <g id="Grupo_1071797" data-name="Grupo 1071797" transform="translate(9.177 19.408)">
        <path id="Trazado_719897" data-name="Trazado 719897" d="M380.377,116.745a3.786,3.786,0,0,1-1.3-.237,1.513,1.513,0,0,1-.71-.434,1.321,1.321,0,0,1-.237-1.183,3.617,3.617,0,0,1,.355-.907l.079-.118a11.464,11.464,0,0,0,1.144-4.969.186.186,0,0,1,.2-.2h0a.186.186,0,0,1,.2.2,11.8,11.8,0,0,1-1.183,5.166l-.079.118a3.3,3.3,0,0,0-.315.789.975.975,0,0,0,.158.828,1.272,1.272,0,0,0,.552.316,3.13,3.13,0,0,0,1.538.2,1.9,1.9,0,0,0,1.262-.749.2.2,0,1,1,.315.237,2.41,2.41,0,0,1-1.538.947Z" transform="translate(-378.082 -108.7)"/>
      </g>
      <g id="Grupo_1071798" data-name="Grupo 1071798" transform="translate(22.03 19.131)">
        <path id="Trazado_719898" data-name="Trazado 719898" d="M410.882,110.248h0a.181.181,0,0,1-.2-.237c.079-.71.118-1.1.2-1.814a.218.218,0,0,1,.434.039c-.079.71-.118,1.1-.2,1.814A.25.25,0,0,1,410.882,110.248Z" transform="translate(-410.674 -108)"/>
      </g>
      <g id="Grupo_1071799" data-name="Grupo 1071799" transform="translate(1.418 11.993)">
        <path id="Trazado_719899" data-name="Trazado 719899" d="M359.115,92.345a.039.039,0,0,1-.039-.039,2.358,2.358,0,0,1-.552-2.366c0-.039.039-.039.079-.039s.039.039.039.079a2.26,2.26,0,0,0,.513,2.209.074.074,0,0,1,0,.118C359.155,92.345,359.155,92.345,359.115,92.345Z" transform="translate(-358.409 -89.9)"/>
      </g>
      <g id="Grupo_1071800" data-name="Grupo 1071800" transform="translate(25.166 9.785)">
        <path id="Trazado_719900" data-name="Trazado 719900" d="M418.694,88.126a.039.039,0,0,1-.039-.039c-.039-.039-.039-.079,0-.079a3.457,3.457,0,0,0,.947-3.628c0-.039,0-.079.039-.079s.079,0,.079.039a3.583,3.583,0,0,1-.986,3.786Z" transform="translate(-418.625 -84.3)"/>
      </g>
    </g>
    <g id="Grupo_1071808" data-name="Grupo 1071808" transform="translate(131.99 56.885)">
      <g id="Grupo_1071802" data-name="Grupo 1071802">
        <path id="Trazado_719901" data-name="Trazado 719901" d="M267.66,138.889c-1.3-6.428-1.972-17.944-3.786-24.333a17.041,17.041,0,0,1-4.141-6.783c-.276-.986-.276-1.38.394-2.051a1.6,1.6,0,0,1,1.854,0c-.237-.631-.828-1.183-.079-1.814a1.093,1.093,0,0,1,1.223-.2,1.083,1.083,0,0,1,2.011-.789c-.592-1.538-1.144-2.958-1.775-4.378-.394-.907-.749-1.972-.2-2.327.71-.473,1.42.513,2.209,2.011a65.727,65.727,0,0,0,3.273,5.719c1.42,2.169,2.524,6.152,1.459,7.612.079,2.6,6.034,18.891,8.361,22.48.868,1.3-.276,2.169-.828,3.628-.71,1.775-3.392,7.888-7.572,4.811A9.54,9.54,0,0,1,267.66,138.889Z" transform="translate(-259.387 -95.901)" fill="#fff"/>
        <path id="Trazado_719902" data-name="Trazado 719902" d="M272.128,143.281a4.165,4.165,0,0,1-2.406-.907,9.417,9.417,0,0,1-2.524-3.786h0c-.552-2.682-.986-6.192-1.42-9.9a112.748,112.748,0,0,0-2.327-14.356,17.048,17.048,0,0,1-4.141-6.823c-.316-1.065-.276-1.538.434-2.248a1.6,1.6,0,0,1,1.578-.276,1.072,1.072,0,0,1,.237-1.538,1.437,1.437,0,0,1,1.144-.355,1.406,1.406,0,0,1,.828-1.223,1.118,1.118,0,0,1,.868.039c-.434-1.144-.907-2.327-1.459-3.589-.434-1.025-.789-2.13-.118-2.563a.706.706,0,0,1,.671-.118c.552.158,1.065.789,1.854,2.209l.039.039a63.973,63.973,0,0,0,3.234,5.64c1.38,2.13,2.6,6.152,1.5,7.809.158,2.642,5.955,18.654,8.322,22.322.67,1.065.237,1.854-.276,2.721a9.032,9.032,0,0,0-.552,1.065c-.71,1.814-2.287,5.009-4.614,5.679A2.248,2.248,0,0,1,272.128,143.281Zm-11.437-37.94a.928.928,0,0,0-.67.237c-.592.592-.592.907-.355,1.854a16.735,16.735,0,0,0,4.062,6.665c.039.039.039.039.039.079a106.594,106.594,0,0,1,2.366,14.474c.434,3.707.868,7.217,1.42,9.9h0a9.487,9.487,0,0,0,2.366,3.51,3.218,3.218,0,0,0,2.918.71c2.169-.631,3.668-3.668,4.338-5.4.158-.434.394-.789.552-1.144.473-.828.828-1.459.276-2.287-2.287-3.51-8.321-19.8-8.4-22.6a.145.145,0,0,1,.039-.118c.986-1.341,0-5.127-1.459-7.375a56.246,56.246,0,0,1-3.273-5.679l-.039-.039c-.434-.789-1.025-1.893-1.578-2.011a.4.4,0,0,0-.355.079c-.473.316.079,1.617.276,2.051.67,1.538,1.223,3,1.775,4.378.039.118,0,.2-.118.276a.261.261,0,0,1-.276-.079.875.875,0,0,0-1.065-.473.99.99,0,0,0-.552,1.1.3.3,0,0,1-.079.2.251.251,0,0,1-.237,0c-.276-.2-.71-.039-.986.158-.473.355-.355.67-.079,1.183a1.845,1.845,0,0,1,.2.394.19.19,0,0,1-.079.237c-.079.039-.158.079-.237,0A.964.964,0,0,0,260.691,105.341Z" transform="translate(-259.122 -95.6)"/>
      </g>
      <g id="Grupo_1071803" data-name="Grupo 1071803" transform="translate(1.723 9.659)">
        <path id="Trazado_719903" data-name="Trazado 719903" d="M265.427,124.038a1.174,1.174,0,0,1-.592-.2,2.8,2.8,0,0,1-.592-.592l-.71-.986a.2.2,0,0,1,.316-.237l.71.986a1.982,1.982,0,0,0,.473.513.506.506,0,0,0,.513.079.586.586,0,0,0,.237-.513,1.375,1.375,0,0,0-.237-.67,7.1,7.1,0,0,0-.868-1.38c-.118-.158-.276-.355-.513-.631a.2.2,0,0,1,.316-.237,4.961,4.961,0,0,0,.513.631,5.91,5.91,0,0,1,.907,1.459,2.046,2.046,0,0,1,.276.868.968.968,0,0,1-.473.907C265.7,124,265.585,124.038,265.427,124.038Z" transform="translate(-263.491 -120.091)"/>
      </g>
      <g id="Grupo_1071804" data-name="Grupo 1071804" transform="translate(3.577 7.647)">
        <path id="Trazado_719904" data-name="Trazado 719904" d="M270.048,120.516a1.417,1.417,0,0,1-.71-.276c-.2-.158-.394-.276-.592-.434a.2.2,0,0,1,.237-.316c.2.158.394.276.592.434.2.118.394.237.552.2.2-.039.315-.355.315-.631,0-.434-.394-1.459-2.169-4.1l-.039-.079a.2.2,0,1,1,.315-.237l.039.079c1.5,2.209,2.248,3.628,2.248,4.338a1,1,0,0,1-.631,1.025C270.166,120.476,270.088,120.516,270.048,120.516Z" transform="translate(-268.191 -114.991)"/>
      </g>
      <g id="Grupo_1071805" data-name="Grupo 1071805" transform="translate(4.669 8.311)">
        <path id="Trazado_719905" data-name="Trazado 719905" d="M272.869,123.389a.262.262,0,0,1-.2-.158,3.162,3.162,0,0,1,.868-2.761c.2-.276.473-.67.394-.749-.2-.316-1.223-.631-1.735-.789a3.032,3.032,0,0,1-.473-.158,1.454,1.454,0,0,1-.749-.907.827.827,0,0,1,.079-.552,1.893,1.893,0,0,1,.907-.631,11.868,11.868,0,0,1,3,.552,1.736,1.736,0,0,0,.394.079c.394.079,1.617.828,1.656,1.38a.218.218,0,1,1-.434.039c0-.237-.907-.907-1.341-.986-.118-.039-.237-.039-.394-.079a14.867,14.867,0,0,0-2.84-.552,1.517,1.517,0,0,0-.631.434c-.039.039-.039.118-.039.237a1.016,1.016,0,0,0,.552.631,1.6,1.6,0,0,0,.394.118c.868.276,1.735.552,1.972.986.2.316-.079.71-.434,1.223a2.827,2.827,0,0,0-.789,2.406.224.224,0,0,1-.158.276C272.909,123.389,272.909,123.389,272.869,123.389Z" transform="translate(-270.961 -116.674)"/>
      </g>
      <g id="Grupo_1071806" data-name="Grupo 1071806" transform="translate(5.537 6.689)">
        <path id="Trazado_719906" data-name="Trazado 719906" d="M274.281,114.666a.2.2,0,0,1-.2-.158,7.979,7.979,0,0,0-.592-1.1c-.118-.2-.237-.394-.316-.552a.2.2,0,0,1,.355-.2c.079.118.2.316.316.513a9.109,9.109,0,0,1,.631,1.183.241.241,0,0,1-.118.276C274.32,114.666,274.32,114.666,274.281,114.666Z" transform="translate(-273.161 -112.561)"/>
      </g>
      <g id="Grupo_1071807" data-name="Grupo 1071807" transform="translate(5.945 10.712)">
        <path id="Trazado_719907" data-name="Trazado 719907" d="M274.631,124.67a.743.743,0,0,1-.315-.079.2.2,0,0,1,.2-.355.464.464,0,0,0,.473-.118c.237-.2.276-.592.118-1.065a.212.212,0,0,1,.394-.158,1.308,1.308,0,0,1-.237,1.538A1.238,1.238,0,0,1,274.631,124.67Z" transform="translate(-274.196 -122.763)"/>
      </g>
    </g>
    <g id="Grupo_1071810" data-name="Grupo 1071810" transform="translate(142.456 80.824)">
      <g id="Grupo_1071809" data-name="Grupo 1071809">
        <path id="Trazado_719908" data-name="Trazado 719908" d="M360.586,184.88c-1.656-8.676-1.656-17.944-8.637-23.781-3.352-2.8-11.279-3.983-15.933-4.3-.276,4.5-4.693,5.561-7.493,5.4-4.693-.316-5.561-1.223-6.744-4.811-1.065.434-7.414.749-11.555,4.417-7.651,6.862-17.037,6.231-16.406,6.626.592.394-1.5,9.938-7.375,11.122-3.076.631,14.04,3.155,25.793.039-.434,6.152,1.775,24.057,3.037,30.959,12.226,8.519,37.427-1.1,37.427-1.1s-1.932-5.679-1.932-9.938c0-2.13,4.969,2.563,5.955,2.761a2.869,2.869,0,0,0,1.5-.986C359.048,199.315,362.124,192.847,360.586,184.88Z" transform="translate(-285.913 -156.603)"/>
        <path id="Trazado_719909" data-name="Trazado 719909" d="M328.861,214c-.986,0-1.893-.039-2.8-.079a21.967,21.967,0,0,1-11.122-3.471c-.039-.039-.079-.079-.079-.118-1.262-6.941-3.392-24.412-3.076-30.722-10.569,2.682-25.122,1.025-26.029.079a.261.261,0,0,1-.079-.276.6.6,0,0,1,.513-.316c2.958-.592,4.811-3.313,5.837-5.521,1.183-2.485,1.578-4.89,1.42-5.245-.118-.079-.118-.2-.079-.237.039-.2.237-.237,1.144-.355,2.563-.316,9.426-1.1,15.341-6.35,3.273-2.918,7.809-3.747,10.254-4.18.631-.118,1.1-.2,1.341-.276.039-.039.118,0,.158,0l.118.118c1.183,3.51,1.932,4.378,6.547,4.654a8.757,8.757,0,0,0,4.575-.907,4.929,4.929,0,0,0,2.682-4.3.3.3,0,0,1,.079-.158c.039-.039.079-.039.158-.039,5.443.355,12.9,1.7,16.051,4.338,5.719,4.772,6.823,11.989,7.888,18.97.237,1.617.513,3.273.828,4.93a27.405,27.405,0,0,1-2.248,16.249,1.924,1.924,0,0,1-.118.276c-.158.355-1.262,1.183-1.7,1.1a9.579,9.579,0,0,1-2.09-1.3c-1.144-.828-3.037-2.209-3.51-1.972-.079.039-.118.158-.118.316a36.783,36.783,0,0,0,1.932,9.86.2.2,0,0,1-.118.276,82.845,82.845,0,0,1-14.158,3.786A61.2,61.2,0,0,1,328.861,214Zm-13.646-3.865c6.271,4.3,16.012,3.786,23.071,2.563a83.2,83.2,0,0,0,13.882-3.668,38.668,38.668,0,0,1-1.854-9.82.656.656,0,0,1,.355-.67c.67-.355,2.051.631,3.944,2.011a7.782,7.782,0,0,0,1.932,1.223,2.448,2.448,0,0,0,1.262-.868c.039-.079.079-.2.118-.276.986-2.327,3.668-8.44,2.209-15.973-.315-1.617-.552-3.313-.828-4.93-1.1-7.217-2.13-14.04-7.769-18.733-3.076-2.563-10.254-3.865-15.618-4.22a5.445,5.445,0,0,1-2.879,4.417,8.969,8.969,0,0,1-4.811.947c-4.654-.316-5.679-1.223-6.862-4.733a9.6,9.6,0,0,1-1.223.237c-2.406.434-6.9,1.223-10.057,4.1-5.995,5.364-12.936,6.152-15.578,6.468a5.543,5.543,0,0,1-.71.079,5.161,5.161,0,0,1-.079,1.459c-.552,3-2.879,8.874-7.493,9.781h-.039c1.854.789,15.618,2.327,25.714-.355a.356.356,0,0,1,.2.039.3.3,0,0,1,.079.158C311.784,185.287,313.914,203.074,315.216,210.133Zm-21.77-41.844Z" transform="translate(-285.661 -156.3)"/>
      </g>
    </g>
    <g id="Grupo_1071811" data-name="Grupo 1071811" transform="translate(200.407 93.8)">
      <path id="Trazado_719910" data-name="Trazado 719910" d="M436.7,212.271a.2.2,0,0,1-.2-.158c-2.485-7.572-3.9-12.344-3.9-22.717a.2.2,0,1,1,.394,0c0,10.293,1.42,15.065,3.9,22.6a.241.241,0,0,1-.118.276Z" transform="translate(-432.6 -189.2)"/>
    </g>
    <g id="Grupo_1071812" data-name="Grupo 1071812" transform="translate(168.304 96.087)">
      <path id="Trazado_719911" data-name="Trazado 719911" d="M351.673,202.927a.237.237,0,0,1-.158-.039c-.118-.118-.118-.237-.158-1.775,0-1.144-.039-3.037-.158-5.916a.2.2,0,1,1,.394,0c.118,2.879.118,4.811.158,5.916,0,.828.039,1.38.039,1.5.039.079.039.2-.039.237C351.792,202.927,351.752,202.927,351.673,202.927Zm.158-.355Z" transform="translate(-351.2 -195)"/>
    </g>
    <g id="Grupo_1071813" data-name="Grupo 1071813" transform="translate(170.749 98.098)">
      <path id="Trazado_719912" data-name="Trazado 719912" d="M368.64,201.8c-4.693,0-8.953-.434-11.2-1.578-.039,0-.039-.079-.039-.079,0-.039.079-.039.079-.039,4.654,2.366,17.984,1.578,25.832.513a.079.079,0,1,1,0,.158A116.219,116.219,0,0,1,368.64,201.8Z" transform="translate(-357.4 -200.1)" fill="#fff"/>
    </g>
    <g id="Grupo_1071814" data-name="Grupo 1071814" transform="translate(170.733 104.234)">
      <path id="Trazado_719913" data-name="Trazado 719913" d="M373.624,217.844a68.012,68.012,0,0,1-16.209-2.051c-.039,0-.079-.039-.039-.079,0-.039.039-.079.079-.039C364,217.292,373.939,218.751,384,216.7c.039,0,.079,0,.079.039s0,.079-.039.079A53.207,53.207,0,0,1,373.624,217.844Z" transform="translate(-357.359 -215.659)" fill="#fff"/>
    </g>
    <g id="Grupo_1071815" data-name="Grupo 1071815" transform="translate(206.993 115.365)">
      <path id="Trazado_719914" data-name="Trazado 719914" d="M458.8,249.094c-.039,0-.039,0-.079-.039-2.248-3.786-5.916-5.679-9.347-4.851-.039,0-.079,0-.079-.039s0-.079.039-.079c3.471-.868,7.217,1.065,9.465,4.93.079,0,.039.039,0,.079Z" transform="translate(-449.3 -243.88)" fill="#fff"/>
    </g>
    <g id="Grupo_1071816" data-name="Grupo 1071816" transform="translate(211.686 118.33)">
      <path id="Trazado_719915" data-name="Trazado 719915" d="M465.1,255.186h-.039a4.052,4.052,0,0,1-.986-1.183,1.752,1.752,0,0,0-.316-.434,5.839,5.839,0,0,0-2.524-2.051c-.039,0-.039-.039-.039-.079s.039-.039.079-.039a6.339,6.339,0,0,1,2.563,2.09c.118.158.2.315.315.473a3.865,3.865,0,0,0,.947,1.144c.039.039.039.079,0,.079Z" transform="translate(-461.2 -251.4)" fill="#fff"/>
    </g>
    <g id="Grupo_1071817" data-name="Grupo 1071817" transform="translate(150.281 93.129)">
      <path id="Trazado_719916" data-name="Trazado 719916" d="M305.579,193.652h0c-.079-.039-.079-.079-.079-.079a14.847,14.847,0,0,0,1.1-5.995.079.079,0,0,1,.158,0,15.35,15.35,0,0,1-1.1,6.074Z" transform="translate(-305.5 -187.5)" fill="#fff"/>
    </g>
    <g id="Grupo_1071818" data-name="Grupo 1071818" transform="translate(152.923 93.129)">
      <path id="Trazado_719917" data-name="Trazado 719917" d="M312.279,189.866h0a.085.085,0,0,1-.079-.079,6.884,6.884,0,0,0,.118-2.209.079.079,0,1,1,.158,0,6.2,6.2,0,0,1-.158,2.248C312.358,189.827,312.318,189.866,312.279,189.866Z" transform="translate(-312.2 -187.5)" fill="#fff"/>
    </g>
    <g id="Grupo_1071819" data-name="Grupo 1071819" transform="translate(201.511 97.901)">
      <path id="Trazado_719918" data-name="Trazado 719918" d="M439.028,219a.262.262,0,0,1-.2-.158,111.791,111.791,0,0,1-3.431-19.009.218.218,0,0,1,.434-.039,110.893,110.893,0,0,0,3.431,18.93.224.224,0,0,1-.158.276Z" transform="translate(-435.4 -199.6)" fill="#fff"/>
    </g>
    <g id="Grupo_1071820" data-name="Grupo 1071820" transform="translate(168.107 97.744)">
      <path id="Trazado_719919" data-name="Trazado 719919" d="M350.9,206.654h0a.186.186,0,0,1-.2-.2l.118-7.059a.211.211,0,0,1,.2-.2.186.186,0,0,1,.2.2l-.118,7.059A.186.186,0,0,1,350.9,206.654Z" transform="translate(-350.7 -199.2)" fill="#fff"/>
    </g>
    <g id="Grupo_1071821" data-name="Grupo 1071821" transform="translate(198.111 118.244)">
      <path id="Trazado_719920" data-name="Trazado 719920" d="M435.114,252.173c.907-.868,2.642-.552,3.786,0,.552.276,5.088,4.457,3.431,7.927-1.42,3-2.366,4.141-9.9,15.263a3.754,3.754,0,0,1-.986,1.1c-1.341.828-3.116-.473-3.707-1.932-1.223-3.116.394-6.586,1.932-9.583C431.21,261.914,434.168,253.04,435.114,252.173Z" transform="translate(-427.1 -251.455)" fill="#fff"/>
      <path id="Trazado_719921" data-name="Trazado 719921" d="M430.179,276.666a2.233,2.233,0,0,1-.71-.118,3.871,3.871,0,0,1-2.248-2.209c-1.3-3.313.552-7.059,1.932-9.741.67-1.341,1.656-3.826,2.564-6.231,1.459-3.786,2.406-6.113,2.879-6.586.947-.907,2.682-.67,4.023-.039.71.316,5.245,4.614,3.51,8.243-1.144,2.406-1.972,3.628-5.955,9.5-1.065,1.538-2.366,3.471-3.944,5.8a3.659,3.659,0,0,1-1.065,1.144A1.921,1.921,0,0,1,430.179,276.666Zm6.192-25.122a2.128,2.128,0,0,0-1.42.473h0c-.473.473-1.656,3.51-2.8,6.468-.946,2.406-1.893,4.93-2.6,6.271-1.341,2.642-3.155,6.271-1.932,9.426a3.463,3.463,0,0,0,1.972,1.972,1.677,1.677,0,0,0,1.42-.118,3.914,3.914,0,0,0,.947-1.025c1.578-2.327,2.879-4.259,3.944-5.8,3.983-5.876,4.812-7.1,5.916-9.465,1.617-3.431-2.958-7.493-3.313-7.651A5.337,5.337,0,0,0,436.371,251.544Zm-1.578.355Z" transform="translate(-426.779 -251.182)"/>
    </g>
    <g id="Grupo_1071851" data-name="Grupo 1071851" transform="translate(184.483 68.362)">
      <g id="Grupo_1071822" data-name="Grupo 1071822" transform="translate(64.075 28.373)">
        <path id="Trazado_719922" data-name="Trazado 719922" d="M563.794,197.161c-.079,3.826,2.248,7.73,5.837,8.992,1.972.67,4.1.592,6.113,1.1s4.062,2.051,4.062,4.1c0,1.38-.789,4.5,3.352,6.35,3.431,1.5,2.6,9.7-7.967,13.172-3.234,1.065-1.144-1.617-4.535-2.13a15.366,15.366,0,0,1-8.637-4.851,27.622,27.622,0,0,1-5.166-8.6c-1.459-3.589-2.485-7.533-1.578-11.319C556.261,200.237,559.574,196.806,563.794,197.161Z" transform="translate(-554.839 -196.941)"/>
        <path id="Trazado_719923" data-name="Trazado 719923" d="M573.9,231.016c-.71,0-.947-.394-1.223-.907a2.383,2.383,0,0,0-2.09-1.459,15.46,15.46,0,0,1-8.755-4.93,27.011,27.011,0,0,1-5.206-8.637c-1.854-4.575-2.366-8.2-1.578-11.437a9.527,9.527,0,0,1,3.037-5.048,7.614,7.614,0,0,1,5.64-1.932.211.211,0,0,1,.2.2,9.115,9.115,0,0,0,5.719,8.755,16.218,16.218,0,0,0,3.352.631,22.445,22.445,0,0,1,2.761.473c2.011.513,4.22,2.09,4.22,4.338a2.981,2.981,0,0,1-.039.592c-.079,1.5-.237,4.023,3.273,5.561A3.749,3.749,0,0,1,585.143,221c-.158,3.076-2.84,7.454-9.9,9.741A4.442,4.442,0,0,1,573.9,231.016ZM563.1,197.06c-3.944,0-6.862,3.352-7.69,6.7-.749,3.155-.237,6.7,1.578,11.2a27.724,27.724,0,0,0,5.127,8.519,15.181,15.181,0,0,0,8.519,4.772,2.723,2.723,0,0,1,2.406,1.656c.315.631.473.947,2.011.434,6.862-2.248,9.465-6.468,9.623-9.386a3.371,3.371,0,0,0-1.656-3.392c-3.747-1.656-3.589-4.338-3.51-5.955,0-.237.039-.434.039-.592,0-2.011-2.051-3.431-3.9-3.9a15.826,15.826,0,0,0-2.682-.434,14.682,14.682,0,0,1-3.431-.67,9.536,9.536,0,0,1-5.995-8.992A1.935,1.935,0,0,1,563.1,197.06Z" transform="translate(-554.694 -196.643)"/>
      </g>
      <g id="Grupo_1071823" data-name="Grupo 1071823" transform="translate(49.361 19.877)">
        <path id="Trazado_719924" data-name="Trazado 719924" d="M520.427,175.1c1.1,5.443,2.169,11.279-.039,16.327-.71,1.656-1.775,3.155-2.366,4.851a15.647,15.647,0,0,0-.552,6.35c.355,4.023,1.578,8.164,4.417,11.043s7.572,4.141,11.082,2.09c3.076-1.775,4.457-5.64,4.259-9.189s-1.7-6.862-3.313-10.057A124.853,124.853,0,0,0,520.427,175.1Z" transform="translate(-517.385 -175.1)"/>
      </g>
      <g id="Grupo_1071824" data-name="Grupo 1071824" transform="translate(54.163 37.762)">
        <path id="Trazado_719925" data-name="Trazado 719925" d="M535.916,229.46a62.931,62.931,0,0,0-.355-6.665,12.7,12.7,0,0,1,3.707-1.183,2.274,2.274,0,0,1,1.7.237c.276.237,1.617-.947,1.735-.631.947,2.209,1.025,5.364,1.972,7.572.079.158,3.392-.118,3.431.039a27.682,27.682,0,0,1-.2,6.862C535.837,243.737,530,232.221,530,232.221A35.724,35.724,0,0,1,535.916,229.46Z" transform="translate(-529.827 -220.881)" fill="#fff"/>
        <path id="Trazado_719926" data-name="Trazado 719926" d="M539.515,238.256a11.125,11.125,0,0,1-2.563-.316c-4.89-1.3-7.375-6.034-7.375-6.073a.261.261,0,0,1,.079-.276,40.032,40.032,0,0,1,5.8-2.682,36.171,36.171,0,0,0-.2-4.457c-.079-.67-.118-1.341-.158-2.09a.217.217,0,0,1,.118-.2A12.529,12.529,0,0,1,539,220.942a2.417,2.417,0,0,1,1.814.237,2.332,2.332,0,0,0,.71-.355c.473-.276.749-.434.947-.355a.394.394,0,0,1,.2.158,18.73,18.73,0,0,1,.986,3.826,19.94,19.94,0,0,0,.947,3.668,10.9,10.9,0,0,0,1.538-.039c1.735-.079,1.854-.039,1.932.158a16.543,16.543,0,0,1,.118,3.747c-.118,3.195-.315,3.313-.394,3.392A15.655,15.655,0,0,1,539.515,238.256Zm-9.5-6.428a12.326,12.326,0,0,0,7.02,5.719c3.155.828,6.665,0,10.412-2.485a32.519,32.519,0,0,0,.158-6.547,10.9,10.9,0,0,0-1.538.039c-1.735.079-1.854.039-1.932-.158a18.729,18.729,0,0,1-.986-3.826,19.935,19.935,0,0,0-.947-3.668,2.747,2.747,0,0,0-.552.316c-.513.276-.907.513-1.144.316a1.973,1.973,0,0,0-1.5-.2,14.248,14.248,0,0,0-3.549,1.1c.039.67.118,1.262.158,1.932a32.331,32.331,0,0,1,.2,4.654.217.217,0,0,1-.118.2A39.132,39.132,0,0,0,530.01,231.827Zm5.64-2.8Z" transform="translate(-529.561 -220.449)"/>
      </g>
      <g id="Grupo_1071825" data-name="Grupo 1071825" transform="translate(50.917 15.472)">
        <path id="Trazado_719927" data-name="Trazado 719927" d="M521.87,170.049c.355,2.682.907,5.482.2,8.164-.394,1.459-.355,8.834,5.6,10.964a11.628,11.628,0,0,0,9.938-1.065,10.665,10.665,0,0,0,4.3-9.5,2.762,2.762,0,0,0,3.628-2.327,2.249,2.249,0,0,0-2.13-2.051,1.915,1.915,0,0,0-1.578.552,24.935,24.935,0,0,1-.671-6.074c-2.051-2.248-5.324-3.431-8.637-3.9a11.676,11.676,0,0,0-3.313-.118C526.011,165.041,521.515,167.328,521.87,170.049Z" transform="translate(-521.645 -164.343)" fill="#fff"/>
        <path id="Trazado_719928" data-name="Trazado 719928" d="M531.179,189.633a12.128,12.128,0,0,1-3.9-.67c-5.916-2.09-6.192-9.426-5.719-11.2a17.944,17.944,0,0,0-.079-7.1c-.039-.316-.079-.67-.118-.986h0a3.1,3.1,0,0,1,.71-2.287c1.42-1.814,4.535-3.116,6.783-3.392a13.06,13.06,0,0,1,3.352.118c2.721.394,6.428,1.42,8.755,3.983.039.039.039.079.039.158a24.1,24.1,0,0,0,.592,5.719,2.222,2.222,0,0,1,1.459-.394,2.037,2.037,0,0,1,1.578.67,2.211,2.211,0,0,1,.749,1.617,2.6,2.6,0,0,1-1.065,2.051,3.286,3.286,0,0,1-2.485.592,10.9,10.9,0,0,1-4.417,9.426A12.763,12.763,0,0,1,531.179,189.633Zm-9.426-20c.039.316.079.67.118.986a18.733,18.733,0,0,1,.079,7.257c-.276.986-.592,8.558,5.443,10.688a11.214,11.214,0,0,0,9.741-1.065,10.57,10.57,0,0,0,4.22-9.307c0-.079,0-.158.079-.2a.173.173,0,0,1,.2-.039,2.829,2.829,0,0,0,2.445-.434,2.118,2.118,0,0,0,.907-1.7,1.935,1.935,0,0,0-.631-1.3,1.913,1.913,0,0,0-1.262-.552,1.724,1.724,0,0,0-1.459.513.3.3,0,0,1-.2.039c-.079-.039-.118-.079-.118-.158a24.831,24.831,0,0,1-.67-6.034c-2.248-2.406-5.837-3.392-8.44-3.786a12.288,12.288,0,0,0-3.234-.118c-2.169.276-5.166,1.5-6.507,3.234a2.384,2.384,0,0,0-.71,1.972Z" transform="translate(-521.331 -163.932)"/>
      </g>
      <g id="Grupo_1071826" data-name="Grupo 1071826" transform="translate(60.131 23.599)">
        <path id="Trazado_719929" data-name="Trazado 719929" d="M548.64,192.963a3.73,3.73,0,0,1-2.406-.907,4.471,4.471,0,0,1-1.5-2.8,4.055,4.055,0,0,1,3.273-4.693,3.6,3.6,0,0,1,2.84.907,4.471,4.471,0,0,1,1.5,2.8h0a4.54,4.54,0,0,1-.71,3.116,3.6,3.6,0,0,1-2.524,1.578Zm-.158-8.045a1.342,1.342,0,0,0-.394.039,3.678,3.678,0,0,0-2.918,4.22,3.9,3.9,0,0,0,1.341,2.563,3.2,3.2,0,0,0,2.524.789,3.256,3.256,0,0,0,2.248-1.42,4.09,4.09,0,0,0,.67-2.8h0a3.9,3.9,0,0,0-1.341-2.564A3.224,3.224,0,0,0,548.482,184.918Z" transform="translate(-544.694 -184.538)"/>
      </g>
      <g id="Grupo_1071827" data-name="Grupo 1071827" transform="translate(49.443 24.027)">
        <path id="Trazado_719930" data-name="Trazado 719930" d="M521.54,194.094a4.1,4.1,0,0,1-3.9-3.747,3.856,3.856,0,1,1,7.612-.986h0a4.055,4.055,0,0,1-3.273,4.693A1.768,1.768,0,0,1,521.54,194.094Zm-.2-8.006a1.342,1.342,0,0,0-.394.039,3.838,3.838,0,1,0,3.865,3.352h0A3.679,3.679,0,0,0,521.343,186.088Z" transform="translate(-517.593 -185.624)"/>
      </g>
      <g id="Grupo_1071828" data-name="Grupo 1071828" transform="translate(60.173 0)">
        <circle id="Elipse_5924" data-name="Elipse 5924" cx="6.823" cy="6.823" r="6.823"/>
      </g>
      <g id="Grupo_1071829" data-name="Grupo 1071829" transform="translate(48.86 10.269)">
        <path id="Trazado_719931" data-name="Trazado 719931" d="M538.076,166.617a18.791,18.791,0,0,1-3.352-7.888c-6.389,3.786-12.463,4.378-18.575,4.141a11.607,11.607,0,0,1,.513-4.338,10.677,10.677,0,0,1,6.074-6.152,17.742,17.742,0,0,1,8.874-1.538,13.444,13.444,0,0,1,7.138,3.707,11.739,11.739,0,0,1,3.313,6.113c.394,2.011-.079,3.471-.986,5.521a2.253,2.253,0,0,0-1.538-.434A3.342,3.342,0,0,0,538.076,166.617Z" transform="translate(-516.114 -150.739)"/>
      </g>
      <g id="Grupo_1071830" data-name="Grupo 1071830" transform="translate(60.248 33.942)">
        <path id="Trazado_719932" data-name="Trazado 719932" d="M546.3,213.183a1.927,1.927,0,0,1-1.223-.434.2.2,0,0,1,.237-.316,1.743,1.743,0,0,0,1.775.158,3.239,3.239,0,0,0,1.7-1.7.212.212,0,1,1,.394.158,3.767,3.767,0,0,1-1.932,1.893A1.982,1.982,0,0,1,546.3,213.183Z" transform="translate(-544.991 -210.762)"/>
      </g>
      <g id="Grupo_1071831" data-name="Grupo 1071831" transform="translate(62.575 27.445)">
        <path id="Trazado_719933" data-name="Trazado 719933" d="M552.155,194.806a.629.629,0,0,0-.71-.513.614.614,0,0,0-.552.67.629.629,0,0,0,.71.513A.6.6,0,0,0,552.155,194.806Z" transform="translate(-550.889 -194.289)"/>
      </g>
      <g id="Grupo_1071832" data-name="Grupo 1071832" transform="translate(52.991 27.958)">
        <path id="Trazado_719934" data-name="Trazado 719934" d="M527.855,196.106a.629.629,0,0,0-.71-.513.614.614,0,0,0-.552.67.629.629,0,0,0,.71.513A.57.57,0,0,0,527.855,196.106Z" transform="translate(-526.589 -195.589)"/>
      </g>
      <g id="Grupo_1071833" data-name="Grupo 1071833" transform="translate(56.523 27.833)">
        <path id="Trazado_719935" data-name="Trazado 719935" d="M536.868,199.82h-.079l-.868-.316c-.118-.039-.316-.118-.355-.315a.627.627,0,0,1,.158-.552,3.589,3.589,0,0,0,.592-3.076.225.225,0,0,1,.434-.118,3.99,3.99,0,0,1-.67,3.431c-.079.079-.079.118-.079.158a.173.173,0,0,0,.118.039l.868.316a.2.2,0,0,1,.118.276A.266.266,0,0,1,536.868,199.82Z" transform="translate(-535.546 -195.274)"/>
      </g>
      <g id="Grupo_1071834" data-name="Grupo 1071834" transform="translate(56.545 25.742)">
        <path id="Trazado_719936" data-name="Trazado 719936" d="M535.8,191.4a.186.186,0,0,1-.2-.2c0-.592.552-.986,1.144-1.144a3.063,3.063,0,0,1,2.721.631.2.2,0,0,1-.237.316,2.727,2.727,0,0,0-2.327-.552c-.394.118-.828.394-.828.749-.079.079-.158.2-.276.2Z" transform="translate(-535.6 -189.972)"/>
      </g>
      <g id="Grupo_1071835" data-name="Grupo 1071835" transform="translate(67.193 25.753)">
        <path id="Trazado_719937" data-name="Trazado 719937" d="M562.8,190.394a.2.2,0,1,1,0-.394h3.155a.2.2,0,0,1,0,.394Z" transform="translate(-562.6 -190)"/>
      </g>
      <g id="Grupo_1071836" data-name="Grupo 1071836" transform="translate(70.452 25.581)">
        <path id="Trazado_719938" data-name="Trazado 719938" d="M571.508,192.338h0a.186.186,0,0,1-.2-.2,6.374,6.374,0,0,0-.434-2.287.212.212,0,1,1,.394-.158,6.428,6.428,0,0,1,.473,2.445A.256.256,0,0,1,571.508,192.338Z" transform="translate(-570.863 -189.563)"/>
      </g>
      <g id="Grupo_1071838" data-name="Grupo 1071838" transform="translate(30.272 45.394)">
        <g id="Grupo_1071837" data-name="Grupo 1071837">
          <path id="Trazado_719939" data-name="Trazado 719939" d="M533.36,265.677c-2.8-7.651-4.338-15.184-10.924-20.666a19.855,19.855,0,0,0-11.4-4.811c-.276,4.259-5.206,7.059-7.848,7.375-1.459.158-6.783.868-6.783-5.442-1.735.71-7.572,1.42-9.9,8.6-.947,2.918-2.682,14.158-8.282,20.666-1.341,1.538-2.564-8.676-4.457-8.006s-4.062,1.775-4.18,3.786c-.118,1.538,1.183,2.918,2.6,3.51,3.076,1.3,4.22,7.69,7.533,8.164,3.431.473,8.913,1.735,13.094-11.24,2.13,2.13,3.51,4.417,5.876,5.679,6.862,3.707,29.7,7.848,33.444,8.519.316.039,1.025-.2,1.144-.473A24.133,24.133,0,0,0,533.36,265.677Z" transform="translate(-469.345 -240.042)" fill="#01d8d1"/>
          <path id="Trazado_719940" data-name="Trazado 719940" d="M531.736,281.762h-.118c-4.378-.789-26.66-4.851-33.483-8.558a15.6,15.6,0,0,1-4.062-3.668c-.513-.592-1.025-1.223-1.617-1.814-1.775,5.4-3.9,8.795-6.547,10.333a9.135,9.135,0,0,1-6.271.789c-.118,0-.237-.039-.355-.039-1.854-.276-3.076-2.287-4.22-4.259-.986-1.656-1.972-3.352-3.352-3.944-1.459-.631-2.84-2.011-2.721-3.707.118-1.656,1.538-2.958,4.338-3.944a.774.774,0,0,1,.592.039c.868.434,1.538,2.6,2.209,4.693.434,1.42,1.025,3.313,1.459,3.431.039,0,.079-.039.118-.079,4.5-5.166,6.507-13.488,7.572-17.944.276-1.144.473-2.051.67-2.642a12.269,12.269,0,0,1,9.11-8.4,8.816,8.816,0,0,0,.947-.316c.079-.039.118,0,.2.039a.3.3,0,0,1,.079.158,5.381,5.381,0,0,0,1.5,4.22c1.617,1.42,4.062,1.1,5.009,1.025h.039c2.524-.315,7.414-3.037,7.69-7.178a.3.3,0,0,1,.079-.158c.039-.039.079-.039.158-.039a19.864,19.864,0,0,1,11.516,4.851c5.482,4.575,7.493,10.491,9.623,16.8.434,1.3.907,2.642,1.38,3.983a23.206,23.206,0,0,1-.2,15.815A2.244,2.244,0,0,1,531.736,281.762Zm-39.4-14.632a.3.3,0,0,1,.158.079c.67.67,1.3,1.38,1.893,2.09a14.761,14.761,0,0,0,3.944,3.589c6.783,3.668,28.987,7.73,33.365,8.479a1.353,1.353,0,0,0,.907-.355,22.819,22.819,0,0,0,.2-15.5c-.473-1.341-.947-2.682-1.38-3.983-2.09-6.231-4.1-12.108-9.465-16.6a19.267,19.267,0,0,0-11.043-4.733,7.828,7.828,0,0,1-3.116,5.127,10.628,10.628,0,0,1-4.93,2.248h-.039c-.986.118-3.589.434-5.324-1.1a5.706,5.706,0,0,1-1.656-4.22c-.2.079-.434.118-.67.2-2.406.71-6.823,2.051-8.834,8.124-.2.552-.394,1.459-.67,2.6-1.1,4.5-3.116,12.9-7.651,18.142a.62.62,0,0,1-.552.237c-.631-.118-1.065-1.42-1.775-3.707-.552-1.814-1.262-4.1-2.011-4.457a.671.671,0,0,0-.276-.039c-2.6.947-3.944,2.09-4.062,3.589s1.223,2.761,2.485,3.313c1.5.631,2.524,2.406,3.549,4.1,1.144,1.972,2.248,3.826,3.944,4.062.118,0,.237.039.355.039,3.392.513,8.558,1.262,12.5-11.161a.308.308,0,0,1,.158-.158C492.3,267.17,492.337,267.131,492.337,267.131Z" transform="translate(-468.982 -239.8)"/>
        </g>
      </g>
      <g id="Grupo_1071839" data-name="Grupo 1071839" transform="translate(47.746 73.647)">
        <path id="Trazado_719941" data-name="Trazado 719941" d="M552.03,316.572c-6.271-.355-12.581-.789-18.891-1.223-.552-.079-3.352-.513-4.062-.592a6.565,6.565,0,0,1-1.7-.552c-1.893-.868-5.916-2.564-6.783-2.051a10.99,10.99,0,0,0-5.4,3.983c-.828,1.065-1.5,2.84-1.144,3.116a.6.6,0,0,0,.789.079,9.927,9.927,0,0,1,4.811-4.772,14.97,14.97,0,0,0-2.721,1.972,5.452,5.452,0,0,0-1.775,2.84c0,.079-.039.2.039.276.118.2.394.079.552-.039.316-.276,4.654-3.747,5.443-3.668a21.5,21.5,0,0,0-4.89,3.826.8.8,0,0,0,.118.434.651.651,0,0,0,.592.2,2,2,0,0,0,.592-.276,27.28,27.28,0,0,1,3.707-2.248,2.22,2.22,0,0,1,2.051-.039,9.78,9.78,0,0,0-3.234,1.972,1.361,1.361,0,0,0-.355.473c-.158.276-.315.631-.118.868.315.355.631.158.907,0a19.055,19.055,0,0,1,3.549-1.854,1.4,1.4,0,0,1,1.183-.079,9.584,9.584,0,0,0,4.693,1.223,13.921,13.921,0,0,1,3.234.67c16.643,4.575,21.573,6.428,25.635,4.693.789-.355,1.065-.749.789-2.09C558.892,320.082,558.182,318.031,552.03,316.572Z" transform="translate(-513.692 -311.815)" fill="#fff"/>
        <path id="Trazado_719942" data-name="Trazado 719942" d="M555.02,326.292c-3.195,0-7.73-1.262-16.249-3.668-1.814-.513-3.826-1.065-6.034-1.7a18.568,18.568,0,0,0-3.195-.67A10.576,10.576,0,0,1,524.732,319a1.247,1.247,0,0,0-.986.079,18.861,18.861,0,0,0-3.51,1.854H520.2a.848.848,0,0,1-1.144-.039c-.355-.355-.039-.907.079-1.1a1.768,1.768,0,0,1,.394-.513,10.578,10.578,0,0,1,2.84-1.814,2.352,2.352,0,0,0-1.459.237,15.169,15.169,0,0,0-2.445,1.42,12.954,12.954,0,0,1-1.223.789,2.009,2.009,0,0,1-.67.276.8.8,0,0,1-.789-.276.754.754,0,0,1-.158-.592c0-.079.039-.158.158-.276-.079.039-.118.118-.2.158a.545.545,0,0,0-.158.118.83.83,0,0,1-.592.2c-.118-.039-.237-.079-.276-.2a.561.561,0,0,1-.079-.237.787.787,0,0,1-1.025-.079c-.552-.473.434-2.524,1.144-3.392a11.43,11.43,0,0,1,5.482-4.062c1.065-.552,5.206,1.262,6.981,2.051a7.751,7.751,0,0,0,1.617.552c.2.039.513.079.907.118,1.065.158,2.721.394,3.155.473,6.152.434,12.541.868,18.891,1.223h.039c6.31,1.5,7.02,3.628,7.73,7.3.276,1.341.039,1.932-.907,2.327A7.707,7.707,0,0,1,555.02,326.292Zm-30.6-7.769a.986.986,0,0,1,.552.158,9.719,9.719,0,0,0,4.575,1.223,15.109,15.109,0,0,1,3.273.67c2.209.592,4.259,1.183,6.034,1.7,11.989,3.352,16.012,4.457,19.443,3,.631-.276.907-.552.67-1.893-.71-3.589-1.341-5.521-7.375-6.981-6.35-.355-12.7-.789-18.852-1.223H532.7c-.394-.079-2.051-.316-3.155-.473-.394-.039-.749-.118-.907-.118a6.414,6.414,0,0,1-1.735-.552c-2.8-1.3-5.955-2.445-6.626-2.09h-.039a10.939,10.939,0,0,0-5.324,3.9,4.936,4.936,0,0,0-1.183,2.84.365.365,0,0,0,.473.079,10,10,0,0,1,4.89-4.811.2.2,0,1,1,.2.355,14.216,14.216,0,0,0-2.682,1.972,4.654,4.654,0,0,0-1.7,2.721v.118a.686.686,0,0,0,.276-.118c.039-.039.079-.039.158-.118,4.614-3.707,5.245-3.628,5.482-3.589.079,0,.158.079.2.2a.281.281,0,0,1-.118.237,23.249,23.249,0,0,0-4.772,3.668.57.57,0,0,0,.079.276c.079.118.276.118.394.118a1.494,1.494,0,0,0,.513-.237,12.336,12.336,0,0,0,1.183-.789,12.37,12.37,0,0,1,2.524-1.459,2.467,2.467,0,0,1,2.287,0c.079.039.079.118.079.2a.176.176,0,0,1-.118.158,9.436,9.436,0,0,0-3.155,1.932,1.752,1.752,0,0,0-.316.434c-.158.315-.237.513-.158.631.2.2.315.158.631,0h.039a20.618,20.618,0,0,1,3.549-1.893A1.3,1.3,0,0,1,524.416,318.523Z" transform="translate(-513.291 -311.439)"/>
      </g>
      <g id="Grupo_1071844" data-name="Grupo 1071844" transform="translate(0 62.037)">
        <g id="Grupo_1071840" data-name="Grupo 1071840" transform="translate(42.82 21.691)">
          <path id="Trazado_719943" data-name="Trazado 719943" d="M502.535,339.761c5.206.118,10.412.237,15.618.315l.039-2.642L500.8,337Z" transform="translate(-500.8 -337)"/>
        </g>
        <g id="Grupo_1071843" data-name="Grupo 1071843">
          <g id="Grupo_1071841" data-name="Grupo 1071841">
            <path id="Trazado_719944" data-name="Trazado 719944" d="M392.8,282.6l33.917.2,11.713,24.018-33.641-.079Z" transform="translate(-392.573 -282.363)" fill="#fff"/>
            <path id="Trazado_719945" data-name="Trazado 719945" d="M438.082,306.649h0l-33.6-.079a.217.217,0,0,1-.2-.118l-12.029-24.136a.176.176,0,0,1,0-.2.217.217,0,0,1,.2-.118h0l33.917.2a.217.217,0,0,1,.2.118l11.713,24.018a.176.176,0,0,1,0,.2C438.2,306.61,438.161,306.649,438.082,306.649Zm-33.483-.473,33.168.079L426.29,282.631l-33.483-.2Z" transform="translate(-392.225 -282)"/>
          </g>
          <g id="Grupo_1071842" data-name="Grupo 1071842" transform="translate(18.883 9.801)">
            <path id="Trazado_719946" data-name="Trazado 719946" d="M443.242,307.378a2.26,2.26,0,0,0-2.406,1.065,2.391,2.391,0,0,0,.631,2.642,2.951,2.951,0,0,0,2.721.631,2.04,2.04,0,0,0,1.3-.789,1.91,1.91,0,0,0,.276-1.025C445.766,308.719,445.253,307.575,443.242,307.378Z" transform="translate(-440.443 -307.162)" fill="#fff"/>
            <path id="Trazado_719947" data-name="Trazado 719947" d="M443.1,311.721a3.159,3.159,0,0,1-2.13-.789,2.588,2.588,0,0,1-.671-2.879,2.415,2.415,0,0,1,2.6-1.183c2.248.237,2.721,1.617,2.721,2.721a1.942,1.942,0,0,1-1.735,2.011A2.733,2.733,0,0,1,443.1,311.721Zm-.552-4.457a1.893,1.893,0,0,0-1.854.947,2.109,2.109,0,0,0,.592,2.406,2.739,2.739,0,0,0,2.524.592,1.8,1.8,0,0,0,1.183-.71,2.344,2.344,0,0,0,.276-.907c0-1.38-.749-2.169-2.327-2.327h-.394Z" transform="translate(-440.104 -306.851)"/>
          </g>
        </g>
      </g>
      <g id="Grupo_1071845" data-name="Grupo 1071845" transform="translate(78.433 56.555)">
        <path id="Trazado_719948" data-name="Trazado 719948" d="M595,289.949a.2.2,0,0,1-.2-.158c-2.366-7.138-3.707-11.674-3.707-21.494a.2.2,0,0,1,.394,0c0,9.741,1.341,14.237,3.668,21.336a.241.241,0,0,1-.118.276Z" transform="translate(-591.1 -268.1)"/>
      </g>
      <g id="Grupo_1071846" data-name="Grupo 1071846" transform="translate(51.315 57.265)">
        <path id="Trazado_719949" data-name="Trazado 719949" d="M524.651,285.794a.205.205,0,0,1-.158-.079c-3.037-4.378-2.208-7.572-1.42-10.688a16.549,16.549,0,0,0,.749-4.93.2.2,0,1,1,.394,0,17.346,17.346,0,0,1-.749,5.048c-.789,3.155-1.578,6.113,1.38,10.333a.19.19,0,0,1-.039.276A.3.3,0,0,1,524.651,285.794Z" transform="translate(-522.34 -269.9)"/>
      </g>
      <g id="Grupo_1071847" data-name="Grupo 1071847" transform="translate(54.359 61.011)">
        <path id="Trazado_719950" data-name="Trazado 719950" d="M539.264,280.78a37.643,37.643,0,0,1-9.15-1.025c-.039,0-.079-.039-.039-.079,0-.039.039-.079.079-.039,7.612,1.893,15.775.749,23.032-.237a.079.079,0,1,1,0,.158A112.109,112.109,0,0,1,539.264,280.78Z" transform="translate(-530.059 -279.4)"/>
      </g>
      <g id="Grupo_1071848" data-name="Grupo 1071848" transform="translate(52.821 66.556)">
        <path id="Trazado_719951" data-name="Trazado 719951" d="M539.663,295.21a57.037,57.037,0,0,1-13.448-1.617c-.039,0-.079-.039-.039-.079,0-.039.039-.079.079-.039a56.684,56.684,0,0,0,24.688.473c.039,0,.079,0,.079.039s0,.079-.039.079A54.3,54.3,0,0,1,539.663,295.21Z" transform="translate(-526.159 -293.459)"/>
      </g>
      <g id="Grupo_1071849" data-name="Grupo 1071849" transform="translate(82.89 75.704)">
        <path id="Trazado_719952" data-name="Trazado 719952" d="M614.31,321.288c-.039,0-.039,0-.039-.039a12.878,12.878,0,0,0-11.792-4.3c-.039,0-.079,0-.079-.039s0-.079.039-.079a13.059,13.059,0,0,1,11.95,4.338c.039.039.039.079,0,.079A.122.122,0,0,1,614.31,321.288Z" transform="translate(-602.4 -316.656)"/>
      </g>
      <g id="Grupo_1071850" data-name="Grupo 1071850" transform="translate(89.814 74.64)">
        <path id="Trazado_719953" data-name="Trazado 719953" d="M624.432,316.578h0a3.838,3.838,0,0,1-1.223-.868c-.118-.118-.276-.237-.394-.355a5.675,5.675,0,0,0-2.8-1.262c-.039,0-.079-.039-.039-.079,0-.039.039-.079.079-.039a5.94,5.94,0,0,1,2.879,1.262c.118.118.276.237.394.355a4.7,4.7,0,0,0,1.144.828c.039,0,.039.039.039.079C624.471,316.578,624.432,316.578,624.432,316.578Z" transform="translate(-619.959 -313.959)"/>
      </g>
    </g>
    <g id="Grupo_1071852" data-name="Grupo 1071852" transform="translate(278.574 154.545)">
      <path id="Trazado_719954" data-name="Trazado 719954" d="M631,343.649a.2.2,0,1,1,0-.394c8.282-.039,16.328-.039,24.688,0a.2.2,0,1,1,0,.394h0c-8.361-.039-16.406-.039-24.688,0Z" transform="translate(-630.8 -343.225)"/>
    </g>
    <g id="Grupo_1071853" data-name="Grupo 1071853" transform="translate(49.2 154.623)">
      <path id="Trazado_719955" data-name="Trazado 719955" d="M264.021,343.849h0c-71.226-.039-143.437-.039-214.624,0a.2.2,0,1,1,0-.394c71.186-.039,143.4-.039,214.624,0a.2.2,0,1,1,0,.394Z" transform="translate(-49.2 -343.425)"/>
    </g>
    <g id="Grupo_1071854" data-name="Grupo 1071854" transform="translate(172.642 133.396)">
      <path id="Trazado_719956" data-name="Trazado 719956" d="M363.462,311.133h0a.2.2,0,0,1-.2-.237c.276-3.549-.158-8.992-.592-14.237-.2-2.445-.394-4.733-.473-6.823a.218.218,0,0,1,.434-.039c.118,2.09.315,4.378.473,6.823.434,5.285.868,10.767.592,14.316A.25.25,0,0,1,363.462,311.133Z" transform="translate(-362.2 -289.6)"/>
    </g>
    <g id="Grupo_1071879" data-name="Grupo 1071879" transform="translate(73.7 69.851)">
      <g id="Grupo_1071855" data-name="Grupo 1071855" transform="translate(22.352 24.274)">
        <path id="Trazado_719957" data-name="Trazado 719957" d="M186.347,194.78a43.782,43.782,0,0,0-.789,8.124l1.972.828s1.893,7.73-9.978,5.364c-2.287-.473-8.953-5.521-8.953-5.521l5.285-1.5s.513-7.651.71-11.477C177.355,191.823,183.034,193.716,186.347,194.78Z" transform="translate(-168.363 -190.373)" fill="#fff"/>
        <path id="Trazado_719958" data-name="Trazado 719958" d="M181.251,209.379a20.781,20.781,0,0,1-4.1-.473c-2.327-.473-8.795-5.364-9.071-5.561-.079-.039-.079-.118-.079-.2a.17.17,0,0,1,.158-.158l5.127-1.459c.079-1.065.513-7.848.71-11.319,0-.079.039-.118.118-.158a.179.179,0,0,1,.2,0,122.276,122.276,0,0,0,11.753,4.22.245.245,0,0,1,.158.237,41.235,41.235,0,0,0-.789,7.927l1.854.749c.079.039.118.079.118.158a4.952,4.952,0,0,1-1.1,4.417C185.235,208.827,183.539,209.379,181.251,209.379Zm-12.541-6.113c1.38,1.025,6.626,4.851,8.558,5.245,4.3.868,7.217.473,8.716-1.065a4.7,4.7,0,0,0,1.025-3.944l-1.893-.749a.217.217,0,0,1-.118-.2,44.19,44.19,0,0,1,.749-7.967c-3.628-1.144-8.637-2.84-11.319-4.062-.2,3.865-.67,11.082-.71,11.161a.262.262,0,0,1-.158.2Z" transform="translate(-168 -190.025)"/>
      </g>
      <g id="Grupo_1071865" data-name="Grupo 1071865" transform="translate(18.918 0)">
        <g id="Grupo_1071857" data-name="Grupo 1071857">
          <g id="Grupo_1071856" data-name="Grupo 1071856">
            <path id="Trazado_719959" data-name="Trazado 719959" d="M175.276,129.087c-5.324-.2-10.491,3.194-10.057,5.995-2.524-.749-5.442,4.1-5.324,6.389.118,2.918,5.837,12.581,7.059,14.119a3.254,3.254,0,0,0,1.972,1.341c-.079-.789.71-1.3.71-2.13,0-.986-1.341-2.721-.276-2.721,5.009.118,4.378,1.262,13.922-8.006,1.223-1.183,2.011-4.023,2.287-6.192C185.766,135.752,184.268,129.442,175.276,129.087Z" transform="translate(-159.655 -128.841)"/>
            <path id="Trazado_719960" data-name="Trazado 719960" d="M168.524,156.763h-.079a3.471,3.471,0,0,1-2.051-1.42c-1.262-1.578-6.941-11.279-7.1-14.237-.079-1.735,1.42-4.614,3.076-5.916a2.938,2.938,0,0,1,2.248-.749,3.78,3.78,0,0,1,1.1-2.485,12.372,12.372,0,0,1,9.189-3.471c3.747.158,6.665,1.38,8.519,3.549a7.915,7.915,0,0,1,1.932,5.482c-.276,2.287-1.1,5.127-2.327,6.31-8.558,8.361-8.953,8.322-12.62,8.124-.434-.039-.907-.039-1.42-.079-.079,0-.158,0-.158.039-.079.118.118.67.276,1.065a4.058,4.058,0,0,1,.394,1.42,2.339,2.339,0,0,1-.394,1.144,1.548,1.548,0,0,0-.315.986c0,.079-.039.118-.079.2A.8.8,0,0,0,168.524,156.763Zm-4.22-21.928a2.859,2.859,0,0,0-1.656.67,8.415,8.415,0,0,0-2.918,5.561c.118,2.879,5.758,12.423,6.981,13.961a3.116,3.116,0,0,0,1.617,1.183,2.3,2.3,0,0,1,.355-.907,2.139,2.139,0,0,0,.355-.947,4.395,4.395,0,0,0-.355-1.262c-.237-.592-.434-1.144-.237-1.459a.485.485,0,0,1,.513-.2c.552,0,1.025.039,1.459.079,3.51.2,3.865.2,12.3-8.006,1.144-1.1,1.932-3.865,2.209-6.074a7.328,7.328,0,0,0-1.814-5.166c-1.775-2.09-4.535-3.234-8.2-3.392a11.978,11.978,0,0,0-8.874,3.313,3.1,3.1,0,0,0-.986,2.445c0,.079,0,.158-.079.2a.173.173,0,0,1-.2.039C164.62,134.875,164.462,134.835,164.3,134.835Z" transform="translate(-159.292 -128.476)"/>
          </g>
        </g>
        <g id="Grupo_1071859" data-name="Grupo 1071859" transform="translate(2.815 10.652)">
          <g id="Grupo_1071858" data-name="Grupo 1071858">
            <path id="Trazado_719961" data-name="Trazado 719961" d="M187.817,158.864a4.16,4.16,0,0,1-3.352-2.011c-.316,1.144-.473,2.366-2.84,2.248-1.144-.039-2.84-1.932-3.273-3.037,0,0,2.524-.592-8.4,4.18,0,.237.039.434.039.67a21.891,21.891,0,0,0,.473,4.1c-1.42-.868-2.485-.552-3.155.394a2.084,2.084,0,0,0,.473,2.879,3.822,3.822,0,0,0,3.471.355c.592,1.972,1.656,5.995,3.313,7.572a9.138,9.138,0,0,0,7.336,2.169,9.8,9.8,0,0,0,6.744-3.983,10.162,10.162,0,0,0,1.065-7.848C189.237,163.991,188.212,161.507,187.817,158.864Z" transform="translate(-166.73 -155.822)" fill="#fff"/>
            <path id="Trazado_719962" data-name="Trazado 719962" d="M180.419,178.326A8.949,8.949,0,0,1,174.188,176c-1.538-1.459-2.524-4.772-3.195-6.981a2.223,2.223,0,0,0-.158-.473,3.908,3.908,0,0,1-3.471-.473,2.279,2.279,0,0,1-.513-3.155,2.23,2.23,0,0,1,3-.67,22.845,22.845,0,0,1-.394-3.628v-.039a3.608,3.608,0,0,0-.039-.631.217.217,0,0,1,.118-.2,89.833,89.833,0,0,0,8.321-3.9v-.039c-.039-.039,0-.118,0-.158l.118-.118c.118-.039.434-.118.513.118.039.079.039.158-.118.316.552,1.065,1.972,2.563,2.918,2.6,2.051.079,2.287-.828,2.563-1.893,0-.079.039-.118.039-.2.039-.079.079-.158.158-.158s.158,0,.2.079a4,4,0,0,0,3.076,1.893c.118,0,.276,0,.316.2h0a27.852,27.852,0,0,0,1.065,4.338c.316,1.1.67,2.209.907,3.352a10.361,10.361,0,0,1-1.1,8.006,9.783,9.783,0,0,1-6.9,4.062A5.777,5.777,0,0,1,180.419,178.326Zm-9.426-10.254c.039,0,.079,0,.079.039l.118.118c.079.2.118.434.2.67.592,2.011,1.617,5.4,3.076,6.823a8.906,8.906,0,0,0,7.178,2.13,9.515,9.515,0,0,0,6.586-3.9c1.341-2.011,1.7-4.575,1.025-7.69a31.6,31.6,0,0,0-.907-3.313,38.854,38.854,0,0,1-1.065-4.22,4.284,4.284,0,0,1-3.076-1.735c-.276,1.025-.71,2.09-2.918,1.972-1.1-.039-2.6-1.617-3.234-2.761-.237.158-.592.316-1.1.592-1.42.71-3.786,1.814-7.1,3.273a2.082,2.082,0,0,0,.039.513v.039a20.886,20.886,0,0,0,.473,4.023c.039.079,0,.158-.079.237a.251.251,0,0,1-.237,0c-1.223-.749-2.169-.631-2.879.315a1.841,1.841,0,0,0,.434,2.564,3.5,3.5,0,0,0,3.273.316C170.915,168.112,170.954,168.072,170.994,168.072Z" transform="translate(-166.431 -155.486)"/>
          </g>
        </g>
        <g id="Grupo_1071860" data-name="Grupo 1071860" transform="translate(20.783 17.244)">
          <path id="Trazado_719963" data-name="Trazado 719963" d="M213.217,172.792a.643.643,0,0,0-.631-.592.57.57,0,0,0-.592.631.643.643,0,0,0,.631.592A.615.615,0,0,0,213.217,172.792Z" transform="translate(-211.99 -172.2)"/>
        </g>
        <g id="Grupo_1071861" data-name="Grupo 1071861" transform="translate(12.186 18.979)">
          <path id="Trazado_719964" data-name="Trazado 719964" d="M191.417,177.192a.643.643,0,0,0-.631-.592.57.57,0,0,0-.592.631.643.643,0,0,0,.631.592A.611.611,0,0,0,191.417,177.192Z" transform="translate(-190.19 -176.6)"/>
        </g>
        <g id="Grupo_1071862" data-name="Grupo 1071862" transform="translate(14.773 28.228)">
          <path id="Trazado_719965" data-name="Trazado 719965" d="M198.978,201.174a3.336,3.336,0,0,1-2.169-.789.2.2,0,0,1,.276-.276,2.808,2.808,0,0,0,2.958.473.212.212,0,0,1,.158.394A4.175,4.175,0,0,1,198.978,201.174Z" transform="translate(-196.75 -200.05)"/>
        </g>
        <g id="Grupo_1071863" data-name="Grupo 1071863" transform="translate(16.311 17.796)">
          <path id="Trazado_719966" data-name="Trazado 719966" d="M202.4,181.724h0a2.315,2.315,0,0,1-1.7-.71c-.079-.079-.079-.237,0-.276.079-.079.237-.079.276,0a1.813,1.813,0,0,0,1.341.552,2.823,2.823,0,0,0,1.5-.434,1.281,1.281,0,0,0,.513-.394.984.984,0,0,0,.039-.828,2.855,2.855,0,0,0-.434-.749l-.079-.118a11.791,11.791,0,0,1-1.893-4.93.218.218,0,1,1,.434-.039,11.091,11.091,0,0,0,1.854,4.772l.079.118a3.461,3.461,0,0,1,.473.828,1.446,1.446,0,0,1-.079,1.223,2.056,2.056,0,0,1-.631.552A4.151,4.151,0,0,1,202.4,181.724Z" transform="translate(-200.65 -173.6)"/>
        </g>
        <g id="Grupo_1071864" data-name="Grupo 1071864" transform="translate(6.224 19.206)">
          <path id="Trazado_719967" data-name="Trazado 719967" d="M175.755,179.353a.262.262,0,0,1-.2-.158c-.2-.71-.276-1.1-.473-1.775a.2.2,0,0,1,.394-.079c.158.67.237,1.065.434,1.775a.224.224,0,0,1-.158.276C175.794,179.353,175.794,179.353,175.755,179.353Z" transform="translate(-175.074 -177.174)"/>
        </g>
      </g>
      <g id="Grupo_1071866" data-name="Grupo 1071866" transform="translate(0 36.017)">
        <path id="Trazado_719968" data-name="Trazado 719968" d="M137.441,250.707c1.341-11.91,1.3-23.663.355-30.407-4.654.316-12.581,1.5-15.933,4.3-6.981,5.837-6.981,15.1-8.637,23.781-1.5,7.967-2.209,15.815-.079,18.575a5.4,5.4,0,0,0,2.09,1.223c.986-.158,7.769-7.3,7.769-5.166a22.419,22.419,0,0,1-.552,5.995h11.753C134.246,268.967,136.968,254.73,137.441,250.707Z" transform="translate(-111.618 -220.103)" fill="#01d8d1"/>
        <path id="Trazado_719969" data-name="Trazado 719969" d="M133.952,268.861H122.2a.2.2,0,0,1-.158-.079.3.3,0,0,1-.039-.2,23.669,23.669,0,0,0,.513-5.916c0-.079,0-.158-.039-.158-.513-.237-3.076,2.011-4.654,3.352a14.025,14.025,0,0,1-2.84,2.209c-.473.079-2.13-1.1-2.287-1.3-2.327-3-1.262-11.831.039-18.733.316-1.617.552-3.313.828-4.93,1.065-6.981,2.169-14.2,7.888-18.97,3.195-2.642,10.648-3.983,16.051-4.338a.25.25,0,0,1,.237.2c1.065,7.375.947,19.325-.355,30.486h0c-.473,4.023-3.195,18.142-3.195,18.3A.561.561,0,0,1,133.952,268.861Zm-11.516-.394h11.319c.316-1.617,2.761-14.316,3.155-18.1l.2.039-.2-.039c1.262-11,1.38-22.835.355-30.17-5.324.355-12.581,1.7-15.618,4.22-5.6,4.693-6.665,11.516-7.769,18.733-.237,1.617-.513,3.313-.828,4.93-1.854,9.741-1.893,16.091-.118,18.378a6.744,6.744,0,0,0,1.893,1.144h0a17.8,17.8,0,0,0,2.642-2.09c2.6-2.287,4.378-3.747,5.088-3.431a.571.571,0,0,1,.276.552A23.793,23.793,0,0,1,122.436,268.467Z" transform="translate(-111.323 -219.8)"/>
      </g>
      <g id="Grupo_1071867" data-name="Grupo 1071867" transform="translate(37.457 36.582)">
        <path id="Trazado_719970" data-name="Trazado 719970" d="M230.4,263.562c3.628-.434,6.9-14,1.38-14.947-.749-.118-3.983-13.054-10.451-21.178-3.431-4.338-10.806-5.4-11.871-5.837,4.733,8.2-2.761,48.115-2.761,48.115l9.82.039s2.248-14.711,2.642-18.1c.316,1.932,2.8,6.271,5.6,9.583,1.025,1.223,1.972.986,2.642,1.656A3.681,3.681,0,0,0,230.4,263.562Z" transform="translate(-206.542 -221.456)" fill="#01d8d1"/>
        <path id="Trazado_719971" data-name="Trazado 719971" d="M216.317,269.769h0l-9.82-.039a.2.2,0,0,1-.158-.079.237.237,0,0,1-.039-.158c.079-.394,7.414-39.912,2.761-47.957a.186.186,0,0,1,.039-.237c.039-.079.158-.079.237-.039a7.474,7.474,0,0,0,1.065.276c2.406.592,8.006,1.972,10.885,5.6,4.457,5.64,7.414,13.606,9.031,17.905a19.066,19.066,0,0,0,1.341,3.195c2.051.355,3.155,2.445,3.076,5.758-.079,4.1-2.13,9.307-4.5,9.583l-.039-.2.039.2a3.824,3.824,0,0,1-3.155-.71,2.056,2.056,0,0,0-.868-.473,3.85,3.85,0,0,1-1.775-1.183,33.309,33.309,0,0,1-5.364-8.676c-.631,4.614-2.485,16.919-2.524,17.077A.266.266,0,0,1,216.317,269.769Zm-9.584-.434h9.386c.237-1.7,2.248-14.75,2.6-17.905a.211.211,0,0,1,.2-.2.18.18,0,0,1,.2.158c.316,1.972,2.879,6.31,5.561,9.5a3.437,3.437,0,0,0,1.617,1.065,2.449,2.449,0,0,1,.986.552,3.633,3.633,0,0,0,2.8.592c1.932-.237,4.062-4.89,4.141-9.189.039-1.459-.158-4.89-2.761-5.324-.316-.039-.552-.631-1.617-3.471-1.578-4.259-4.535-12.226-8.953-17.787-2.8-3.51-8.282-4.851-10.648-5.443a4.907,4.907,0,0,0-.631-.158c1.775,3.747,1.814,12.778.2,26.818C208.706,258.529,207.049,267.719,206.734,269.336Z" transform="translate(-206.3 -221.234)"/>
      </g>
      <g id="Grupo_1071868" data-name="Grupo 1071868" transform="translate(13.311 48.982)">
        <path id="Trazado_719972" data-name="Trazado 719972" d="M145.281,279.857h-.039c-.118-.039-.2-.158-.158-.237.947-3.707,1.538-7.572,2.366-12.9.552-3.628,1.223-8.124,2.248-13.882.039-.118.118-.2.237-.158s.2.118.158.237c-.986,5.719-1.7,10.215-2.248,13.843-.828,5.324-1.42,9.189-2.366,12.936A.262.262,0,0,1,145.281,279.857Z" transform="translate(-145.074 -252.674)"/>
      </g>
      <g id="Grupo_1071869" data-name="Grupo 1071869" transform="translate(49.903 51.831)">
        <path id="Trazado_719973" data-name="Trazado 719973" d="M238.072,275.084a.3.3,0,0,1-.158-.079.261.261,0,0,1-.039-.237c.079-.355.394-3.826.67-7.533.2-2.287.394-4.89.592-7.138a.218.218,0,1,1,.434.039c-.2,2.248-.434,4.811-.592,7.138-.631,7.612-.67,7.651-.789,7.73C238.19,275.084,238.112,275.084,238.072,275.084Zm-.118-.355Zm0,0Z" transform="translate(-237.859 -259.9)"/>
      </g>
      <g id="Grupo_1071870" data-name="Grupo 1071870" transform="translate(1.144 72.28)">
        <path id="Trazado_719974" data-name="Trazado 719974" d="M114.294,315.477a.039.039,0,0,1-.039-.039.074.074,0,0,1,0-.118,13.474,13.474,0,0,1,11.161-3.431c.039,0,.079.039.039.079,0,.039-.039.079-.079.039a13.329,13.329,0,0,0-11.043,3.392C114.333,315.477,114.294,315.477,114.294,315.477Z" transform="translate(-114.225 -311.75)"/>
      </g>
      <g id="Grupo_1071871" data-name="Grupo 1071871" transform="translate(1.45 74.627)">
        <path id="Trazado_719975" data-name="Trazado 719975" d="M115.079,320.382c-.039,0-.039,0-.079-.039,0-.039,0-.079.039-.079a3.837,3.837,0,0,0,1.223-.868,4.192,4.192,0,0,1,.434-.355,6.228,6.228,0,0,1,3.037-1.341.062.062,0,0,1,.039.118,6.106,6.106,0,0,0-2.958,1.3,3.559,3.559,0,0,0-.394.355,5.027,5.027,0,0,1-1.341.907Z" transform="translate(-115 -317.7)"/>
      </g>
      <g id="Grupo_1071872" data-name="Grupo 1071872" transform="translate(29.096 44.309)">
        <path id="Trazado_719976" data-name="Trazado 719976" d="M191.41,242.669a14.347,14.347,0,0,1-6.271-1.459c-.039,0-.039-.039-.039-.079s.039-.039.079-.039a14.019,14.019,0,0,0,8.4,1.262,5.3,5.3,0,0,0,3.234-1.5c.039-.039.079-.039.079,0,.039.039.039.079,0,.079a5.338,5.338,0,0,1-3.313,1.538A12.67,12.67,0,0,1,191.41,242.669Z" transform="translate(-185.1 -240.825)"/>
      </g>
      <g id="Grupo_1071875" data-name="Grupo 1071875" transform="translate(60.028 41.498)">
        <g id="Grupo_1071873" data-name="Grupo 1071873">
          <path id="Trazado_719977" data-name="Trazado 719977" d="M280.933,245.354c2.327-2.327,1.341-3.9,3.944-6.981,1.065-1.262,2.13-2.366,3.076-3.392.513-.513.947-1.223,1.459-.789.631.513-.079,1.932-.355,2.366-1.183,1.735-1.1,2.327-1.065,3a30.714,30.714,0,0,1,7.69-4.5.908.908,0,0,1,.789.118.962.962,0,0,1-.355,1.065c-1.459,1.025-3.628,2.524-5.088,3.589,2.642-1.7,6.113-3.826,6.665-3.116a.9.9,0,0,1-.276,1.065c-1.578,1.144-3.668,2.6-5.285,3.747,1.38-1.144,5.561-3.628,5.916-2.761.315.907-3.549,3.352-5.206,4.338,1.341-.828,4.457-2.761,4.811-1.972.276.631-.67,1.183-.986,1.42-2.485,1.932-5.4,4.575-8.124,5.521a10.07,10.07,0,0,0-2.169.749,9.622,9.622,0,0,0-1.38,1.459c-13.33,15.184-17.55,20.35-19.956,19.837-2.011-.434-.513-8.637,1.538-14.04C267.643,256.239,276,250.284,280.933,245.354Z" transform="translate(-263.868 -233.917)" fill="#fff"/>
          <path id="Trazado_719978" data-name="Trazado 719978" d="M265.017,270.258a1.092,1.092,0,0,1-.355-.039,1.22,1.22,0,0,1-.749-.592c-1.065-1.972.237-8.834,2.13-13.685a.217.217,0,0,1,.2-.118h0c.986,0,9.15-5.719,14.2-10.767l.158.158-.158-.158a6.972,6.972,0,0,0,1.814-3.116,10.4,10.4,0,0,1,2.13-3.865c1.065-1.223,2.051-2.327,3.076-3.392l.237-.237c.434-.473.947-1.065,1.538-.552.789.67-.079,2.248-.315,2.642a4.3,4.3,0,0,0-1.025,2.445,28.313,28.313,0,0,1,7.414-4.259c.2-.079.828-.079,1.025.2a.715.715,0,0,1,.079.513,1.385,1.385,0,0,1-.473.828c-.276.2-.631.434-.947.67,1.5-.749,2.287-.868,2.6-.513a.708.708,0,0,1,.118.592,1.046,1.046,0,0,1-.473.789c-.315.237-.631.434-.947.67a2.582,2.582,0,0,1,1.3-.237.424.424,0,0,1,.355.316c.079.2.276.67-1.7,2.209a1.753,1.753,0,0,1,.947-.118.451.451,0,0,1,.315.276c.315.71-.473,1.262-.907,1.578-.039.039-.079.079-.118.079-.473.355-.947.749-1.459,1.183-2.09,1.7-4.5,3.589-6.7,4.378a4.16,4.16,0,0,1-.749.2,3.593,3.593,0,0,0-1.38.513,5.829,5.829,0,0,0-.986.986,4.18,4.18,0,0,1-.394.473c-1.262,1.42-2.406,2.761-3.51,4.023C271.09,265.92,267.3,270.258,265.017,270.258Zm1.341-14.079c-1.814,4.772-3.076,11.4-2.09,13.251a.686.686,0,0,0,.434.394c2.051.434,5.916-3.983,16.249-15.775,1.1-1.262,2.287-2.6,3.51-4.023a4.192,4.192,0,0,1,.355-.434,4.546,4.546,0,0,1,1.065-1.065,4.227,4.227,0,0,1,1.5-.552c.276-.079.513-.118.71-.2,2.169-.789,4.5-2.642,6.586-4.338.513-.394.986-.789,1.459-1.183a.545.545,0,0,1,.158-.118c.316-.237.947-.67.789-1.065a.138.138,0,0,0-.079-.039c-.552-.158-2.366.868-3.628,1.617-.276.158-.513.316-.828.513a.2.2,0,1,1-.2-.355l.039-.039a4.648,4.648,0,0,1,.749-.434c4.5-2.8,4.378-3.549,4.338-3.628,0,0,0-.039-.079-.039-.552-.158-2.366.749-3.865,1.7-.592.394-1.144.828-1.656,1.183a.19.19,0,0,1-.276-.039.2.2,0,0,1,.039-.276,16.853,16.853,0,0,1,1.7-1.183,8.666,8.666,0,0,1,.986-.67c.907-.631,1.854-1.3,2.642-1.854a.745.745,0,0,0,.276-.513c0-.118,0-.237-.039-.276s-.355-.276-2.287.71a41.528,41.528,0,0,0-4.1,2.445.175.175,0,0,1-.276-.079.19.19,0,0,1,.039-.276c.749-.513,1.617-1.144,2.524-1.775s1.814-1.262,2.564-1.814a.8.8,0,0,0,.315-.552.273.273,0,0,0,0-.2.653.653,0,0,0-.552-.039,28.9,28.9,0,0,0-7.612,4.457.429.429,0,0,1-.2.039c-.079-.039-.118-.079-.118-.158v-.039c-.039-.67-.118-1.3,1.1-3.037.315-.473.868-1.7.394-2.09-.237-.2-.473-.039-.947.513l-.237.237c-1.025,1.065-2.051,2.169-3.076,3.392a10.782,10.782,0,0,0-2.051,3.707,7.062,7.062,0,0,1-1.932,3.273h0C276.217,249.79,268.053,255.784,266.358,256.179Z" transform="translate(-263.53 -233.698)"/>
        </g>
        <g id="Grupo_1071874" data-name="Grupo 1071874" transform="translate(23.794 5.551)">
          <path id="Trazado_719979" data-name="Trazado 719979" d="M324.073,253.345a.2.2,0,0,1-.158-.079.167.167,0,0,1,.039-.276,2.99,2.99,0,0,0,.828-3.352,3.143,3.143,0,0,0-.316-.631,5.052,5.052,0,0,1-.434-.947.225.225,0,1,1,.434-.118,3.453,3.453,0,0,0,.394.868c.118.237.237.434.355.71a3.489,3.489,0,0,1-.947,3.826Z" transform="translate(-323.861 -247.774)"/>
        </g>
      </g>
      <g id="Grupo_1071876" data-name="Grupo 1071876" transform="translate(57.545 65.714)">
        <path id="Trazado_719980" data-name="Trazado 719980" d="M257.536,305.946a.138.138,0,0,1-.079-.039,19.432,19.432,0,0,1,1.42-10.767c0-.039.039-.039.079-.039s.039.039.039.079a19.466,19.466,0,0,0-1.42,10.688c.039.039,0,.079-.039.079Z" transform="translate(-257.235 -295.1)"/>
      </g>
      <g id="Grupo_1071877" data-name="Grupo 1071877" transform="translate(55.783 71.929)">
        <path id="Trazado_719981" data-name="Trazado 719981" d="M253.174,314.9c-.039,0-.039,0-.079-.039a7.434,7.434,0,0,1-.118-3.944c0-.039.039-.079.079-.039.039,0,.079.039.039.079a7.157,7.157,0,0,0,.118,3.865c.039.039.039.079-.039.079Z" transform="translate(-252.767 -310.859)"/>
      </g>
      <g id="Grupo_1071878" data-name="Grupo 1071878" transform="translate(1.28 75.731)">
        <path id="Trazado_719982" data-name="Trazado 719982" d="M125.011,320.9c6.547,1.1,13.172,2.13,19.759,3.155.592.039,3.589.276,4.338.355a7.217,7.217,0,0,0,1.854-.158c2.13-.473,6.7-1.262,7.493-.552a11.461,11.461,0,0,1,4.654,5.4c.592,1.3.868,3.273.473,3.51a.612.612,0,0,1-.828-.118,10.285,10.285,0,0,0-3.865-6.034,15.157,15.157,0,0,1,2.327,2.682,5.77,5.77,0,0,1,1.183,3.352.375.375,0,0,1-.079.276c-.158.158-.434,0-.592-.2-.276-.355-3.9-4.969-4.772-5.048a24.025,24.025,0,0,1,4.18,5.088.94.94,0,0,1-.237.434.593.593,0,0,1-.67.039,1.779,1.779,0,0,1-.552-.394A35.705,35.705,0,0,0,156.4,329.5a2.388,2.388,0,0,0-2.13-.513,10.806,10.806,0,0,1,2.879,2.8,2.061,2.061,0,0,1,.276.592c.079.315.158.749-.079.907-.434.276-.67.039-.947-.2a19.1,19.1,0,0,0-3.195-2.761,1.512,1.512,0,0,0-1.183-.355,10.271,10.271,0,0,1-5.127.2,14.5,14.5,0,0,0-3.51-.079c-18.221.828-23.781,1.578-27.528-1.183-.749-.552-.907-1.025-.316-2.366C117.084,322.951,118.267,320.979,125.011,320.9Z" transform="translate(-114.943 -320.742)" fill="#fff"/>
        <path id="Trazado_719983" data-name="Trazado 719983" d="M156.623,333.317a1.117,1.117,0,0,1-.71-.355h0a18.573,18.573,0,0,0-3.195-2.721c-.316-.2-.67-.434-1.025-.316a10.587,10.587,0,0,1-5.245.2,16.6,16.6,0,0,0-3.471-.079c-2.445.118-4.654.237-6.626.316-13.251.67-17.708.868-21.021-1.538-.868-.631-.986-1.262-.394-2.6,1.578-3.589,2.8-5.64,9.662-5.719h.039c6.665,1.1,13.33,2.169,19.759,3.155.473.039,2.09.158,3.313.237.434.039.828.079,1.025.079a8.4,8.4,0,0,0,1.814-.158c1.972-.434,6.7-1.3,7.651-.513a11.737,11.737,0,0,1,4.733,5.482c.513,1.1,1.025,3.392.355,3.747a.834.834,0,0,1-1.1-.158h0a.426.426,0,0,1-.118.276.448.448,0,0,1-.316.118.863.863,0,0,1-.552-.315.545.545,0,0,1-.118-.158c-.079-.118-.158-.2-.237-.316a.613.613,0,0,1-.158.947.948.948,0,0,1-.868.079,3.576,3.576,0,0,1-.631-.434c-.355-.355-.71-.749-1.065-1.1a15.64,15.64,0,0,0-2.209-2.051,2.807,2.807,0,0,0-1.5-.592,10.373,10.373,0,0,1,2.524,2.563,3.145,3.145,0,0,1,.316.631c.079.2.237.868-.158,1.144A.758.758,0,0,1,156.623,333.317Zm-4.733-3.865a1.817,1.817,0,0,1,1.065.434,21.061,21.061,0,0,1,3.234,2.761h0c.276.237.394.355.67.158.118-.079.118-.315,0-.67a1.222,1.222,0,0,0-.237-.513,9.385,9.385,0,0,0-2.84-2.721.144.144,0,0,1-.079-.2c0-.079.039-.158.118-.158a2.473,2.473,0,0,1,2.327.552,16.22,16.22,0,0,1,2.248,2.09c.355.355.71.749,1.065,1.1a1.854,1.854,0,0,0,.473.355.412.412,0,0,0,.434-.039c.079-.039.118-.158.158-.276a25.471,25.471,0,0,0-4.062-4.93.2.2,0,0,1,.158-.355c.2.039.868.079,4.772,4.969.079.079.118.118.118.158a.706.706,0,0,0,.276.2.305.305,0,0,1,.039-.118,5.55,5.55,0,0,0-1.144-3.234,14.687,14.687,0,0,0-2.287-2.642.243.243,0,0,1-.039-.276.2.2,0,0,1,.276-.039,10.53,10.53,0,0,1,3.9,6.113.418.418,0,0,0,.513.039c.237-.158.079-1.893-.552-3.234a11.318,11.318,0,0,0-4.575-5.285.039.039,0,0,1-.039-.039c-.592-.552-4.1-.079-7.336.592a7.106,7.106,0,0,1-1.932.2c-.2,0-.552-.039-1.025-.079-1.144-.079-2.879-.237-3.313-.237h0c-6.428-.986-13.094-2.051-19.759-3.155-6.586.079-7.69,1.932-9.268,5.482-.592,1.3-.355,1.656.237,2.09,3.195,2.327,7.612,2.09,20.745,1.459,1.972-.079,4.22-.2,6.626-.316a15.012,15.012,0,0,1,3.549.079,10.462,10.462,0,0,0,5.048-.158A.635.635,0,0,1,151.89,329.453Zm8.676,2.879Z" transform="translate(-114.57 -320.5)"/>
      </g>
    </g>
    <g id="Grupo_1071883" data-name="Grupo 1071883" transform="translate(267.334 67.84)">
      <g id="Grupo_1071880" data-name="Grupo 1071880">
        <path id="Trazado_719984" data-name="Trazado 719984" d="M614.359,145.262a8.653,8.653,0,0,1-5.048-2.485,8.724,8.724,0,0,1,11.477-13.094l2.879-2.879a12.77,12.77,0,1,0-9.347,22.519v-4.062Z" transform="translate(-602.527 -123.64)" fill="#fff"/>
        <path id="Trazado_719985" data-name="Trazado 719985" d="M614.131,149.3h0a13.112,13.112,0,0,1-8.045-3.747A12.978,12.978,0,0,1,623.6,126.423a.2.2,0,0,1,.079.158.157.157,0,0,1-.079.158l-2.879,2.879a.191.191,0,0,1-.276,0,8.531,8.531,0,0,0-11.2.71,8.507,8.507,0,0,0,4.93,14.474.211.211,0,0,1,.2.2v4.1a.3.3,0,0,1-.079.158C614.21,149.258,614.171,149.3,614.131,149.3Zm1.144-25.517a12.549,12.549,0,0,0-8.913,21.415,12.7,12.7,0,0,0,7.533,3.628v-3.668a8.619,8.619,0,0,1-4.969-2.524,8.86,8.86,0,0,1-2.6-6.31,9.027,9.027,0,0,1,2.6-6.31,8.937,8.937,0,0,1,11.595-.868l2.6-2.6A12.533,12.533,0,0,0,615.275,123.781Z" transform="translate(-602.3 -123.377)"/>
      </g>
      <g id="Grupo_1071881" data-name="Grupo 1071881" transform="translate(19.634 4.544)">
        <path id="Trazado_719986" data-name="Trazado 719986" d="M652.7,138.379a8.721,8.721,0,0,1,1.814,5.364l4.062.473a12.869,12.869,0,0,0-2.958-8.716Z" transform="translate(-652.457 -135.263)"/>
        <path id="Trazado_719987" data-name="Trazado 719987" d="M658.164,144.01h0l-4.062-.473a.211.211,0,0,1-.2-.2,8.477,8.477,0,0,0-1.775-5.206c-.079-.079-.039-.2,0-.276l2.879-2.879a.205.205,0,0,1,.158-.079.3.3,0,0,1,.158.079,12.91,12.91,0,0,1,3.037,8.834.3.3,0,0,1-.079.158C658.282,144.01,658.243,144.01,658.164,144.01Zm-3.826-.828,3.628.434a12.312,12.312,0,0,0-2.8-8.164l-2.6,2.6A8.856,8.856,0,0,1,654.339,143.182Z" transform="translate(-652.085 -134.9)"/>
      </g>
      <g id="Grupo_1071882" data-name="Grupo 1071882" transform="translate(13.843 15.035)">
        <path id="Trazado_719988" data-name="Trazado 719988" d="M645.3,162a8.9,8.9,0,0,1-2.248,3.9A8.653,8.653,0,0,1,638,168.389v4.1a12.714,12.714,0,0,0,7.927-3.707,12.348,12.348,0,0,0,3.431-6.31Z" transform="translate(-637.763 -161.803)" fill="#01d8d1"/>
        <path id="Trazado_719989" data-name="Trazado 719989" d="M637.637,172.385a.237.237,0,0,1-.158-.039.205.205,0,0,1-.079-.158v-4.1a.186.186,0,0,1,.2-.2,8.356,8.356,0,0,0,4.93-2.406,8.508,8.508,0,0,0,2.209-3.826.216.216,0,0,1,.237-.158l4.062.473a.3.3,0,0,1,.158.079.237.237,0,0,1,.039.158,12.781,12.781,0,0,1-3.51,6.428,13.316,13.316,0,0,1-8.085,3.747Zm.2-4.141v3.668a12.633,12.633,0,0,0,10.924-9.623l-3.668-.434a8.962,8.962,0,0,1-2.248,3.826A8.665,8.665,0,0,1,637.834,168.244Z" transform="translate(-637.4 -161.5)"/>
      </g>
    </g>
    <g id="Grupo_1071899" data-name="Grupo 1071899" transform="translate(102.392 31.674)">
      <g id="Grupo_1071884" data-name="Grupo 1071884" transform="translate(19.177 32.931)">
        <rect id="Rectngulo_380043" data-name="Rectngulo 380043" width="3.747" height="1.735" transform="matrix(0.974, -0.227, 0.227, 0.974, 0.201, 1.048)"/>
        <path id="Trazado_719990" data-name="Trazado 719990" d="M233.292,118.142c-.079,0-.2-.079-.2-.158l-.394-1.7a.237.237,0,0,1,.039-.158c.039-.039.079-.079.118-.079l3.668-.868a.174.174,0,0,1,.237.158l.394,1.7a.237.237,0,0,1-.039.158c-.039.039-.079.079-.118.079l-3.668.868Zm-.158-1.735.315,1.3,3.234-.749-.315-1.3Z" transform="translate(-232.7 -115.174)"/>
      </g>
      <g id="Grupo_1071886" data-name="Grupo 1071886" transform="translate(7.578 7.066)">
        <g id="Grupo_1071885" data-name="Grupo 1071885">
          <path id="Trazado_719991" data-name="Trazado 719991" d="M222.512,57.533a9.562,9.562,0,0,0-18.694,4.023,9.476,9.476,0,0,0,4.338,6.231c2.366,1.459,4.1,2.366,4.733,5.088l6.428-1.5c-.631-2.682.473-4.259,1.932-6.586A9.1,9.1,0,0,0,222.512,57.533Z" transform="translate(-203.497 -49.918)" fill="#fff"/>
          <path id="Trazado_719992" data-name="Trazado 719992" d="M212.718,72.824c-.079,0-.2-.079-.2-.158-.592-2.445-2.09-3.392-4.18-4.693a4.155,4.155,0,0,1-.434-.276,9.781,9.781,0,0,1-3.116-13.488,9.758,9.758,0,0,1,5.837-4.3,9.767,9.767,0,0,1,11.95,7.257h0a9.711,9.711,0,0,1-1.262,7.454l-.158.237c-1.42,2.209-2.366,3.668-1.775,6.192a.237.237,0,0,1-.039.158c-.039.039-.079.079-.118.079l-6.428,1.5Zm.315-22.8a9.755,9.755,0,0,0-2.366.316,9.362,9.362,0,0,0-2.6,17,4.158,4.158,0,0,1,.434.276c2.051,1.262,3.668,2.287,4.338,4.733l6.034-1.42c-.513-2.563.473-4.141,1.854-6.31l.158-.237a9.13,9.13,0,0,0,1.223-7.138h0a9.275,9.275,0,0,0-4.259-5.876A9.633,9.633,0,0,0,213.034,50.028Z" transform="translate(-203.288 -49.591)"/>
        </g>
      </g>
      <g id="Grupo_1071887" data-name="Grupo 1071887" transform="translate(15.815 26.513)">
        <path id="Trazado_719993" data-name="Trazado 719993" d="M225.31,104.272l-.71-3,7.612-1.775.71,3A3.947,3.947,0,0,1,230,107.19h0A3.947,3.947,0,0,1,225.31,104.272Z" transform="translate(-224.432 -99.263)" fill="#ffd42e"/>
        <path id="Trazado_719994" data-name="Trazado 719994" d="M228.168,107.3a3.19,3.19,0,0,1-3.076-2.445h0l-.907-3.944a.174.174,0,0,1,.158-.237l7.612-1.775a.237.237,0,0,1,.158.039c.039.039.079.079.079.118L233.1,103a3.16,3.16,0,0,1-2.366,3.786l-1.854.434A2.184,2.184,0,0,1,228.168,107.3Zm-2.682-2.524a2.761,2.761,0,0,0,3.273,2.051l1.854-.434a2.771,2.771,0,0,0,2.051-3.273l-.868-3.747-7.178,1.7Z" transform="translate(-224.174 -98.9)"/>
      </g>
      <g id="Grupo_1071888" data-name="Grupo 1071888" transform="translate(17.127 28.248)">
        <path id="Trazado_719995" data-name="Trazado 719995" d="M227.579,104.8a.138.138,0,0,1-.079-.039c0-.039,0-.079.039-.079l5.876-1.38c.039,0,.079,0,.079.039s0,.079-.039.079l-5.876,1.38Z" transform="translate(-227.5 -103.3)"/>
      </g>
      <g id="Grupo_1071889" data-name="Grupo 1071889" transform="translate(14.997 19.256)">
        <path id="Trazado_719996" data-name="Trazado 719996" d="M222.179,82a.138.138,0,0,1-.079-.039c0-.039,0-.079.039-.079l5.876-1.38c.039,0,.079,0,.079.039s0,.079-.039.079L222.179,82Z" transform="translate(-222.1 -80.5)"/>
      </g>
      <g id="Grupo_1071890" data-name="Grupo 1071890" transform="translate(13.212)">
        <path id="Trazado_719997" data-name="Trazado 719997" d="M218.61,35.668c-.079,0-.2-.079-.2-.158l-.828-3.589a.2.2,0,0,1,.394-.079l.828,3.589a.174.174,0,0,1-.158.237Z" transform="translate(-217.574 -31.674)"/>
      </g>
      <g id="Grupo_1071891" data-name="Grupo 1071891" transform="translate(24.959 1.572)">
        <path id="Trazado_719998" data-name="Trazado 719998" d="M247.573,39.226a.145.145,0,0,1-.118-.039.261.261,0,0,1-.079-.276l1.972-3.155a.2.2,0,0,1,.355.2l-1.972,3.155C247.731,39.226,247.652,39.226,247.573,39.226Z" transform="translate(-247.361 -35.661)"/>
      </g>
      <g id="Grupo_1071892" data-name="Grupo 1071892" transform="translate(30.801 11.95)">
        <path id="Trazado_719999" data-name="Trazado 719999" d="M262.381,63.207c-.079,0-.2-.079-.2-.158a.174.174,0,0,1,.158-.237l3.589-.828a.2.2,0,1,1,.079.394l-3.589.828Z" transform="translate(-262.174 -61.974)"/>
      </g>
      <g id="Grupo_1071893" data-name="Grupo 1071893" transform="translate(2.124 7.37)">
        <path id="Trazado_720000" data-name="Trazado 720000" d="M192.828,52.743a.145.145,0,0,1-.118-.039l-3.155-1.972a.2.2,0,1,1,.2-.355l3.155,1.972a.261.261,0,0,1,.079.276C192.986,52.7,192.907,52.743,192.828,52.743Z" transform="translate(-189.461 -50.361)"/>
      </g>
      <g id="Grupo_1071894" data-name="Grupo 1071894" transform="translate(0 19.128)">
        <path id="Trazado_720001" data-name="Trazado 720001" d="M184.281,81.407c-.079,0-.2-.079-.2-.158a.174.174,0,0,1,.158-.237l3.589-.828a.2.2,0,0,1,.079.394l-3.589.828Z" transform="translate(-184.074 -80.174)"/>
      </g>
      <g id="Grupo_1071897" data-name="Grupo 1071897" transform="translate(12.568 16.571)">
        <g id="Grupo_1071895" data-name="Grupo 1071895" transform="translate(0 2.189)">
          <path id="Trazado_720002" data-name="Trazado 720002" d="M221.8,88.453a.262.262,0,0,1-.2-.158c0-.079-1.854-6.586-5.561-8.676-.118-.039-.118-.2-.079-.276.039-.118.2-.118.276-.079,3.826,2.169,5.679,8.637,5.758,8.913a.224.224,0,0,1-.158.276Z" transform="translate(-215.94 -79.24)"/>
        </g>
        <g id="Grupo_1071896" data-name="Grupo 1071896" transform="translate(8.01)">
          <path id="Trazado_720003" data-name="Trazado 720003" d="M236.782,84.461c-.079,0-.2-.079-.2-.158-.039-.276-1.262-6.9,1.223-10.53a.2.2,0,1,1,.315.237c-2.406,3.51-1.183,10.175-1.144,10.215a.181.181,0,0,1-.2.237Z" transform="translate(-236.25 -73.691)"/>
        </g>
      </g>
      <g id="Grupo_1071898" data-name="Grupo 1071898" transform="translate(12.502 15.986)">
        <path id="Trazado_720004" data-name="Trazado 720004" d="M215.981,75.321c-.079,0-.2-.079-.2-.158a.174.174,0,0,1,.158-.237.8.8,0,0,0,.552-.513,1.135,1.135,0,0,1,.828-.67,1.319,1.319,0,0,1,1.065.237.85.85,0,0,0,.749.2.8.8,0,0,0,.552-.513,1.135,1.135,0,0,1,.828-.67,1.319,1.319,0,0,1,1.065.237.85.85,0,0,0,.749.2.8.8,0,0,0,.552-.513,1.135,1.135,0,0,1,.828-.67,1.319,1.319,0,0,1,1.065.237.85.85,0,0,0,.749.2.2.2,0,0,1,.079.394,1.319,1.319,0,0,1-1.065-.237.85.85,0,0,0-.749-.2.8.8,0,0,0-.552.513,1.135,1.135,0,0,1-.828.67,1.319,1.319,0,0,1-1.065-.237.85.85,0,0,0-.749-.2.8.8,0,0,0-.552.513,1.135,1.135,0,0,1-.828.67,1.319,1.319,0,0,1-1.065-.237.85.85,0,0,0-.749-.2.8.8,0,0,0-.552.513,1.135,1.135,0,0,1-.828.67Z" transform="translate(-215.774 -72.208)"/>
      </g>
    </g>
    <g id="Grupo_1071903" data-name="Grupo 1071903" transform="translate(60.148 81.243)">
      <g id="Grupo_1071900" data-name="Grupo 1071900">
        <path id="Trazado_720005" data-name="Trazado 720005" d="M95.942,179.3l-1.262-.828a2.987,2.987,0,0,0-4.457,1.459l-.513,1.42c-2.09-.276-1.735-.237-3.826-.513l-.118-1.5a2.975,2.975,0,0,0-3.9-2.564l-1.459.473c-1.1-1.814-.907-1.5-2.011-3.313l1.1-1.065a2.981,2.981,0,0,0-.434-4.654l-1.262-.828c.749-1.972.592-1.656,1.341-3.628l1.5.2a2.966,2.966,0,0,0,3.352-3.234l-.158-1.5L87.5,158l.789,1.3a2.993,2.993,0,0,0,4.654.592l1.1-1.065c1.775,1.144,1.459.947,3.234,2.09l-.552,1.42a3.01,3.01,0,0,0,2.406,4.023l1.5.2c.2,2.09.158,1.735.355,3.826l-1.459.473a2.971,2.971,0,0,0-1.617,4.378l.789,1.3C97.164,178.074,97.44,177.837,95.942,179.3Z" transform="translate(-77.469 -157.748)" fill="#fff"/>
        <path id="Trazado_720006" data-name="Trazado 720006" d="M89.163,181.158h0l-3.865-.513c-.079,0-.158-.079-.2-.2l-.118-1.5a2.7,2.7,0,0,0-1.262-2.09,2.73,2.73,0,0,0-2.406-.315l-1.459.473a.19.19,0,0,1-.237-.079l-2.011-3.313a.243.243,0,0,1,.039-.276l1.1-1.065a2.7,2.7,0,0,0,.828-2.248,2.67,2.67,0,0,0-1.262-2.051l-1.262-.828a.19.19,0,0,1-.079-.237l1.341-3.628a.192.192,0,0,1,.237-.118l1.5.2a2.762,2.762,0,0,0,3.116-3.037l-.158-1.5a.245.245,0,0,1,.158-.237l3.668-1.223a.19.19,0,0,1,.237.079l.789,1.3a2.758,2.758,0,0,0,2.011,1.341,2.721,2.721,0,0,0,2.287-.749l1.1-1.065a.243.243,0,0,1,.276-.039l3.234,2.09a.19.19,0,0,1,.079.237l-.552,1.42a2.771,2.771,0,0,0,2.248,3.707l1.5.2c.079,0,.158.079.2.2l.355,3.826a.245.245,0,0,1-.158.237l-1.459.473a2.691,2.691,0,0,0-1.735,1.656,2.726,2.726,0,0,0,.237,2.406l.789,1.3a.243.243,0,0,1-.039.276l-2.761,2.682a.243.243,0,0,1-.276.039l-1.262-.828a2.73,2.73,0,0,0-2.406-.316,2.66,2.66,0,0,0-1.735,1.7l-.513,1.42C89.36,181.118,89.281,181.158,89.163,181.158Zm-3.628-.868,3.51.473.473-1.262a3.225,3.225,0,0,1,4.772-1.578l1.144.749,2.524-2.445-.71-1.144a3.181,3.181,0,0,1,1.735-4.693l1.3-.434-.316-3.51-1.341-.158a3.153,3.153,0,0,1-2.327-1.5,3.24,3.24,0,0,1-.276-2.761l.473-1.262-2.958-1.932-.986.947a3.243,3.243,0,0,1-2.642.868,3.093,3.093,0,0,1-2.327-1.538l-.71-1.144-3.352,1.1.118,1.341a3.171,3.171,0,0,1-.947,2.6,3.242,3.242,0,0,1-2.642.868l-1.341-.2L77.489,167l1.144.749a3.327,3.327,0,0,1,1.459,2.366,3.2,3.2,0,0,1-.986,2.6l-.986.947,1.814,3,1.3-.434a3.113,3.113,0,0,1,2.761.355,3.16,3.16,0,0,1,1.42,2.366Z" transform="translate(-76.961 -157.361)"/>
      </g>
      <g id="Grupo_1071901" data-name="Grupo 1071901" transform="translate(4.192 4.243)">
        <circle id="Elipse_5925" data-name="Elipse 5925" cx="5.442" cy="5.442" r="5.442" transform="matrix(0.678, -0.735, 0.735, 0.678, 0, 7.999)"/>
        <path id="Trazado_720007" data-name="Trazado 720007" d="M98.44,184.579a5.64,5.64,0,1,1,5.64-5.64A5.639,5.639,0,0,1,98.44,184.579Zm0-10.846a5.206,5.206,0,1,0,5.206,5.206A5.2,5.2,0,0,0,98.44,173.734Z" transform="translate(-90.745 -171.257)"/>
      </g>
      <g id="Grupo_1071902" data-name="Grupo 1071902" transform="translate(6.863 6.926)">
        <circle id="Elipse_5926" data-name="Elipse 5926" cx="3.549" cy="3.549" r="3.549" transform="matrix(0.679, -0.734, 0.734, 0.679, 0, 5.213)" fill="#fff"/>
        <path id="Trazado_720008" data-name="Trazado 720008" d="M101.347,185.593a3.747,3.747,0,1,1,3.747-3.747A3.771,3.771,0,0,1,101.347,185.593Zm0-7.059a3.313,3.313,0,1,0,3.313,3.313A3.307,3.307,0,0,0,101.347,178.534Z" transform="translate(-96.323 -176.847)"/>
      </g>
    </g>
    <g id="Grupo_1071906" data-name="Grupo 1071906" transform="translate(221.057 58.147)">
      <g id="Grupo_1071904" data-name="Grupo 1071904">
        <path id="Trazado_720009" data-name="Trazado 720009" d="M496.782,112.533l-1.262-.71c-.868.237-1.341.394-2.169.631l-.67,1.3c-1.617-.394-1.38-.355-3-.71v-1.459c-.631-.631-.986-.947-1.656-1.578l-1.459.039c-.473-1.578-.394-1.38-.868-2.958l1.262-.749c.2-.868.316-1.341.552-2.209l-.789-1.262c1.144-1.183.986-1.025,2.13-2.248l1.262.71c.868-.237,1.341-.394,2.169-.631l.67-1.3c1.617.394,1.38.355,3,.71v1.459c.631.631.986.947,1.656,1.578l1.459-.039c.473,1.578.394,1.38.868,2.958l-1.262.749c-.2.868-.316,1.341-.552,2.209l.789,1.262C497.768,111.468,497.886,111.31,496.782,112.533Z" transform="translate(-485.408 -99.163)" fill="#fff"/>
        <path id="Trazado_720010" data-name="Trazado 720010" d="M492.154,113.589h-.039l-3-.71a.262.262,0,0,1-.158-.2V111.3l-1.538-1.459-1.38.039c-.118,0-.2-.039-.2-.158l-.868-2.958a.19.19,0,0,1,.079-.237l1.183-.71.513-2.051L486,102.586c-.039-.079-.039-.2.039-.237l2.13-2.248a.186.186,0,0,1,.237-.039l1.223.67,2.011-.592.631-1.223a.281.281,0,0,1,.237-.118l3,.71a.262.262,0,0,1,.158.2v1.38l1.538,1.459,1.38-.039c.079,0,.2.039.2.158l.868,2.958a.19.19,0,0,1-.079.237l-1.183.71-.513,2.051.749,1.183c.039.079.039.2-.039.237l-2.13,2.248a.186.186,0,0,1-.237.039l-1.223-.67-2.011.592-.631,1.223A.217.217,0,0,1,492.154,113.589Zm-2.8-1.1,2.682.631.592-1.144.118-.118,2.169-.631h.158l1.144.631,1.893-2.011-.71-1.1a.237.237,0,0,1-.039-.158l.552-2.209c0-.039.039-.118.079-.118l1.144-.67-.789-2.642-1.3.039a.237.237,0,0,1-.158-.039l-1.656-1.578a.2.2,0,0,1-.079-.158V99.9l-2.682-.631-.592,1.144-.118.118-2.169.631h-.158l-1.144-.631-1.893,2.011.71,1.1a.237.237,0,0,1,.039.158l-.552,2.209c0,.039-.039.118-.079.118l-1.144.67.789,2.642,1.3-.039a.237.237,0,0,1,.158.039l1.656,1.578a.2.2,0,0,1,.079.158Z" transform="translate(-484.961 -98.8)"/>
      </g>
      <g id="Grupo_1071905" data-name="Grupo 1071905" transform="translate(4.235 4.299)">
        <circle id="Elipse_5927" data-name="Elipse 5927" cx="2.879" cy="2.879" r="2.879" transform="translate(0.237 0.237)" fill="#fff"/>
        <path id="Trazado_720011" data-name="Trazado 720011" d="M498.816,115.931a3.116,3.116,0,1,1,3.116-3.116A3.122,3.122,0,0,1,498.816,115.931Zm0-5.8a2.682,2.682,0,1,0,2.682,2.682A2.685,2.685,0,0,0,498.816,110.134Z" transform="translate(-495.7 -109.7)"/>
      </g>
    </g>
    <g id="Grupo_1071907" data-name="Grupo 1071907" transform="translate(212.199 72.7)">
      <path id="Trazado_720012" data-name="Trazado 720012" d="M464.362,136.4a1.262,1.262,0,1,1-1.262,1.262A1.246,1.246,0,0,1,464.362,136.4Z" transform="translate(-462.863 -136.124)"/>
      <path id="Trazado_720013" data-name="Trazado 720013" d="M464,138.7a1.5,1.5,0,1,1,1.5-1.5A1.524,1.524,0,0,1,464,138.7Zm0-2.524a1.065,1.065,0,1,0,1.065,1.065A1.06,1.06,0,0,0,464,136.173Z" transform="translate(-462.5 -135.7)"/>
    </g>
    <g id="Grupo_1071908" data-name="Grupo 1071908" transform="translate(301.921 138.286)">
      <path id="Trazado_720014" data-name="Trazado 720014" d="M691.862,302.6a1.262,1.262,0,1,1-1.262,1.262A1.3,1.3,0,0,1,691.862,302.6Z" transform="translate(-690.363 -302.363)"/>
      <path id="Trazado_720015" data-name="Trazado 720015" d="M691.5,305a1.5,1.5,0,1,1,1.5-1.5A1.5,1.5,0,0,1,691.5,305Zm0-2.524a1.065,1.065,0,1,0,1.065,1.065A1.06,1.06,0,0,0,691.5,302.473Z" transform="translate(-690 -302)"/>
    </g>
    <g id="Grupo_1071909" data-name="Grupo 1071909" transform="translate(50.659 121.801)">
      <circle id="Elipse_5928" data-name="Elipse 5928" cx="1.538" cy="1.538" r="1.538" transform="translate(0.237 0.237)"/>
      <path id="Trazado_720016" data-name="Trazado 720016" d="M54.675,263.749a1.775,1.775,0,1,1,1.775-1.775A1.767,1.767,0,0,1,54.675,263.749Zm0-3.116a1.341,1.341,0,1,0,1.341,1.341A1.355,1.355,0,0,0,54.675,260.634Z" transform="translate(-52.9 -260.2)"/>
    </g>
    <g id="Grupo_1071910" data-name="Grupo 1071910" transform="translate(151.661 57.004)">
      <path id="Trazado_720017" data-name="Trazado 720017" d="M310.131,96.4a.631.631,0,1,1-.631.631A.678.678,0,0,1,310.131,96.4Z" transform="translate(-309.303 -96.203)"/>
      <path id="Trazado_720018" data-name="Trazado 720018" d="M309.828,97.556a.828.828,0,1,1,.828-.828A.833.833,0,0,1,309.828,97.556Zm0-1.223a.394.394,0,1,0,.394.394A.373.373,0,0,0,309.828,96.334Z" transform="translate(-309 -95.9)"/>
    </g>
    <g id="Grupo_1071911" data-name="Grupo 1071911" transform="translate(128.234 95.377)">
      <path id="Trazado_720019" data-name="Trazado 720019" d="M250.731,193.7a.631.631,0,1,1-.631.631A.623.623,0,0,1,250.731,193.7Z" transform="translate(-249.903 -193.503)"/>
      <path id="Trazado_720020" data-name="Trazado 720020" d="M250.428,194.856a.828.828,0,1,1,.828-.828A.809.809,0,0,1,250.428,194.856Zm0-1.223a.394.394,0,1,0,.394.394A.373.373,0,0,0,250.428,193.634Z" transform="translate(-249.6 -193.2)"/>
    </g>
    <g id="Grupo_1071912" data-name="Grupo 1071912" transform="translate(153.751 75.027)">
      <circle id="Elipse_5929" data-name="Elipse 5929" cx="1.735" cy="1.735" r="1.735" transform="translate(0.197 0.197)" fill="#fff"/>
      <path id="Trazado_720021" data-name="Trazado 720021" d="M316.232,145.465a1.932,1.932,0,1,1,1.932-1.932A1.936,1.936,0,0,1,316.232,145.465Zm0-3.471a1.5,1.5,0,1,0,1.5,1.5A1.524,1.524,0,0,0,316.232,141.994Z" transform="translate(-314.3 -141.6)"/>
    </g>
    <g id="Grupo_1071913" data-name="Grupo 1071913" transform="translate(283.503 130.477)">
      <path id="Trazado_720022" data-name="Trazado 720022" d="M643.9,284.435a1.735,1.735,0,1,1,1.735,1.735A1.725,1.725,0,0,1,643.9,284.435Z" transform="translate(-643.663 -282.503)" fill="#fff"/>
      <path id="Trazado_720023" data-name="Trazado 720023" d="M645.232,286.065a1.932,1.932,0,1,1,1.933-1.932A1.936,1.936,0,0,1,645.232,286.065Zm0-3.431a1.5,1.5,0,1,0,1.5,1.5A1.45,1.45,0,0,0,645.232,282.634Z" transform="translate(-643.3 -282.2)"/>
    </g>
    <g id="Grupo_1071914" data-name="Grupo 1071914" transform="translate(60.006 138.365)">
      <circle id="Elipse_5930" data-name="Elipse 5930" cx="1.104" cy="1.104" r="1.104" transform="translate(0.197 0.158)" fill="#fff"/>
      <path id="Trazado_720024" data-name="Trazado 720024" d="M77.9,304.8a1.3,1.3,0,1,1,1.3-1.3A1.313,1.313,0,0,1,77.9,304.8Zm0-2.209a.907.907,0,1,0,.907.907A.892.892,0,0,0,77.9,302.594Z" transform="translate(-76.6 -302.2)"/>
    </g>
    <g id="Grupo_1071915" data-name="Grupo 1071915" transform="translate(290.602 103.344)">
      <path id="Trazado_720025" data-name="Trazado 720025" d="M667.807,226.02a.186.186,0,0,1-.2-.2.25.25,0,0,1,.2-.237,6.953,6.953,0,0,0,1.578-.276.212.212,0,0,1,.158.394,8.929,8.929,0,0,1-1.735.316Zm-1.656-.158h-.039a6.256,6.256,0,0,1-1.617-.631c-.118-.039-.118-.2-.079-.276.039-.118.2-.118.276-.079a5.4,5.4,0,0,0,1.5.592c.118.039.2.158.158.237A.262.262,0,0,1,666.151,225.863Zm4.812-.868a.205.205,0,0,1-.158-.079.19.19,0,0,1,.039-.276,6.158,6.158,0,0,0,1.183-1.065.2.2,0,1,1,.315.237,7.125,7.125,0,0,1-1.3,1.144A.138.138,0,0,1,670.962,224.995Zm-7.69-.749a.3.3,0,0,1-.158-.079,5.984,5.984,0,0,1-1.025-1.38c-.039-.118-.039-.237.079-.276s.237-.039.276.079a6.286,6.286,0,0,0,.986,1.3.239.239,0,0,1,0,.316C663.351,224.206,663.311,224.246,663.272,224.246Zm9.82-1.775h-.079a.2.2,0,0,1-.118-.276,5.346,5.346,0,0,0,.473-1.538.2.2,0,0,1,.394.079,6.2,6.2,0,0,1-.513,1.656C673.25,222.431,673.171,222.471,673.092,222.471Zm-11.437-1.1c-.079,0-.2-.079-.2-.158a6.238,6.238,0,0,1-.158-1.5,6.076,6.076,0,0,1,.237-1.7.225.225,0,1,1,.434.118,5.467,5.467,0,0,0-.237,1.578,5.293,5.293,0,0,0,.158,1.38.174.174,0,0,1-.158.237ZM673.6,219.2a.186.186,0,0,1-.2-.2,7.11,7.11,0,0,0-.394-1.578.212.212,0,0,1,.394-.158,6.43,6.43,0,0,1,.434,1.656.264.264,0,0,1-.237.276Zm-11.24-2.445a.145.145,0,0,1-.118-.039.261.261,0,0,1-.079-.276,7.134,7.134,0,0,1,1.1-1.341c.079-.079.237-.079.276,0,.079.079.079.237,0,.276a5.325,5.325,0,0,0-1.025,1.262C662.483,216.713,662.444,216.752,662.365,216.752Zm9.978-.592a.2.2,0,0,1-.158-.079,5.067,5.067,0,0,0-1.144-1.1.2.2,0,0,1,.237-.316,8.969,8.969,0,0,1,1.262,1.183.19.19,0,0,1-.039.276C672.422,216.121,672.382,216.161,672.343,216.161Zm-7.572-1.656a.217.217,0,0,1-.2-.118.226.226,0,0,1,.079-.276,6.035,6.035,0,0,1,1.617-.552.2.2,0,1,1,.079.394,7.826,7.826,0,0,0-1.538.513C664.849,214.5,664.81,214.5,664.771,214.5Zm4.89-.316h-.079a5.392,5.392,0,0,0-1.578-.355.218.218,0,1,1,.039-.434,6.188,6.188,0,0,1,1.7.355.2.2,0,0,1,.118.276A.2.2,0,0,1,669.661,214.189Z" transform="translate(-661.3 -213.4)"/>
    </g>
    <g id="Grupo_1071916" data-name="Grupo 1071916" transform="translate(156.551 143.61)">
      <path id="Trazado_720026" data-name="Trazado 720026" d="M324.555,321.692h0a2.917,2.917,0,0,1-1.42-.355.2.2,0,0,1,.2-.355,2.719,2.719,0,0,0,1.262.315h.276a.218.218,0,0,1,.039.434A1.359,1.359,0,0,0,324.555,321.692Zm1.775-.631a.2.2,0,0,1-.158-.079.19.19,0,0,1,.039-.276,2.606,2.606,0,0,0,.868-1.262.212.212,0,1,1,.394.158,3.189,3.189,0,0,1-1.025,1.459Zm-4.338-.828a.217.217,0,0,1-.2-.118,3.123,3.123,0,0,1,.118-3.234.2.2,0,1,1,.355.2,2.689,2.689,0,0,0-.079,2.8c.039.118.039.237-.079.276C322.07,320.233,322.031,320.233,321.992,320.233Zm5.364-2.169c-.079,0-.2-.079-.2-.158a2.489,2.489,0,0,0-.789-1.3.2.2,0,0,1,.276-.276,3.278,3.278,0,0,1,.907,1.5.174.174,0,0,1-.158.237Zm-3.983-1.893a.217.217,0,0,1-.2-.118.2.2,0,0,1,.118-.276,3.454,3.454,0,0,1,1.262-.276,2.424,2.424,0,0,1,.513.039.2.2,0,1,1-.079.394,1.618,1.618,0,0,0-.434-.039,2.646,2.646,0,0,0-1.1.237A.138.138,0,0,0,323.372,316.17Z" transform="translate(-321.4 -315.5)"/>
    </g>
  </g>
</svg>
