<svg xmlns="http://www.w3.org/2000/svg" xmlns:xlink="http://www.w3.org/1999/xlink" width="260" height="324" viewBox="0 0 260 324">
  <defs>
    <clipPath id="clip-path">
      <rect id="Rectángulo_379723" data-name="Rectángulo 379723" width="260" height="324" transform="translate(915 7629)" fill="#e8f3f8"/>
    </clipPath>
    <linearGradient id="linear-gradient" x1="1.13" y1="1.295" x2="0.236" y2="0.19" gradientUnits="objectBoundingBox">
      <stop offset="0" stop-color="#dae3fe"/>
      <stop offset="1" stop-color="#e9effd"/>
    </linearGradient>
    <linearGradient id="linear-gradient-2" x1="0.5" y1="0.941" x2="0.429" y2="-0.71" gradientUnits="objectBoundingBox">
      <stop offset="0" stop-color="#09005d"/>
      <stop offset="1" stop-color="#1a0f91"/>
    </linearGradient>
    <linearGradient id="linear-gradient-3" x1="-1.222" y1="-0.159" x2="3.766" y2="2.237" gradientUnits="objectBoundingBox">
      <stop offset="0" stop-color="#a737d5"/>
      <stop offset="1" stop-color="#ef497a"/>
    </linearGradient>
    <linearGradient id="linear-gradient-4" x1="-30.932" y1="-2.447" x2="161.105" y2="15.532" xlink:href="#linear-gradient-3"/>
    <linearGradient id="linear-gradient-5" x1="1.519" y1="-0.774" x2="-1.483" y2="2.908" xlink:href="#linear-gradient-2"/>
    <linearGradient id="linear-gradient-6" x1="1.005" y1="-2.462" x2="-0.074" y2="4.12" xlink:href="#linear-gradient-2"/>
    <linearGradient id="linear-gradient-7" x1="0.727" y1="-2.866" x2="0.282" y2="3.702" gradientUnits="objectBoundingBox">
      <stop offset="0" stop-color="#4f52ff"/>
      <stop offset="1" stop-color="#4042e2"/>
    </linearGradient>
    <linearGradient id="linear-gradient-8" x1="18.523" y1="-3.682" x2="18.142" y2="-2.213" gradientUnits="objectBoundingBox">
      <stop offset="0" stop-color="#e1473d"/>
      <stop offset="1" stop-color="#e9605a"/>
    </linearGradient>
    <linearGradient id="linear-gradient-9" x1="19.167" y1="-3.831" x2="18.772" y2="-2.31" gradientUnits="objectBoundingBox">
      <stop offset="0" stop-color="#ff928e"/>
      <stop offset="1" stop-color="#fe7062"/>
    </linearGradient>
    <linearGradient id="linear-gradient-10" x1="44.181" y1="-6.424" x2="43.256" y2="-4.003" xlink:href="#linear-gradient-9"/>
    <linearGradient id="linear-gradient-11" x1="11.551" y1="-1.046" x2="11.317" y2="-0.144" xlink:href="#linear-gradient-8"/>
    <linearGradient id="linear-gradient-12" x1="11.945" y1="-1.101" x2="11.702" y2="-0.167" xlink:href="#linear-gradient-9"/>
    <linearGradient id="linear-gradient-13" x1="27.27" y1="-2.099" x2="26.702" y2="-0.606" xlink:href="#linear-gradient-9"/>
    <linearGradient id="linear-gradient-14" x1="11.21" y1="-1.811" x2="10.982" y2="-0.935" xlink:href="#linear-gradient-8"/>
    <linearGradient id="linear-gradient-15" x1="11.58" y1="-1.891" x2="11.344" y2="-0.984" xlink:href="#linear-gradient-9"/>
    <linearGradient id="linear-gradient-16" x1="26.507" y1="-3.347" x2="25.954" y2="-1.902" xlink:href="#linear-gradient-9"/>
    <linearGradient id="linear-gradient-17" x1="13.891" y1="-1.057" x2="13.607" y2="0.039" xlink:href="#linear-gradient-8"/>
    <linearGradient id="linear-gradient-18" x1="14.336" y1="-1.109" x2="14.042" y2="0.023" xlink:href="#linear-gradient-9"/>
    <linearGradient id="linear-gradient-19" x1="32.948" y1="-2.097" x2="32.258" y2="-0.295" xlink:href="#linear-gradient-9"/>
    <linearGradient id="linear-gradient-20" x1="0" y1="0.5" x2="1" y2="0.5" xlink:href="#linear-gradient-2"/>
    <linearGradient id="linear-gradient-21" x1="-1.041" y1="2.885" x2="3.056" y2="-3.453" xlink:href="#linear-gradient-7"/>
    <linearGradient id="linear-gradient-22" x1="-1.766" y1="4.014" x2="2.32" y2="-2.324" xlink:href="#linear-gradient-7"/>
    <linearGradient id="linear-gradient-23" x1="-2.475" y1="5.1" x2="1.623" y2="-1.238" xlink:href="#linear-gradient-7"/>
    <linearGradient id="linear-gradient-24" x1="2.347" y1="-7.328" x2="1.046" y2="-1.814" xlink:href="#linear-gradient-9"/>
    <linearGradient id="linear-gradient-25" x1="-0.555" y1="2.132" x2="3.543" y2="-4.206" xlink:href="#linear-gradient-7"/>
    <linearGradient id="linear-gradient-26" x1="-1.281" y1="3.261" x2="2.805" y2="-3.077" xlink:href="#linear-gradient-7"/>
    <linearGradient id="linear-gradient-27" x1="-1.989" y1="4.347" x2="2.109" y2="-1.991" xlink:href="#linear-gradient-7"/>
    <linearGradient id="linear-gradient-28" x1="-2.718" y1="5.476" x2="1.38" y2="-0.862" xlink:href="#linear-gradient-7"/>
    <linearGradient id="linear-gradient-29" x1="-0.124" y1="1.467" x2="3.974" y2="-4.871" xlink:href="#linear-gradient-7"/>
    <linearGradient id="linear-gradient-30" x1="-0.851" y1="2.596" x2="3.235" y2="-3.742" xlink:href="#linear-gradient-7"/>
    <linearGradient id="linear-gradient-31" x1="-1.558" y1="3.681" x2="2.54" y2="-2.656" xlink:href="#linear-gradient-7"/>
    <linearGradient id="linear-gradient-32" x1="0.349" y1="0.733" x2="4.447" y2="-5.605" xlink:href="#linear-gradient-7"/>
    <linearGradient id="linear-gradient-33" x1="-0.38" y1="1.862" x2="3.706" y2="-4.476" xlink:href="#linear-gradient-7"/>
    <linearGradient id="linear-gradient-34" x1="-1.085" y1="2.948" x2="3.013" y2="-3.39" xlink:href="#linear-gradient-7"/>
    <linearGradient id="linear-gradient-35" x1="-0.029" y1="0.904" x2="1.631" y2="-0.364" xlink:href="#linear-gradient-7"/>
    <linearGradient id="linear-gradient-36" x1="-162.912" y1="0.495" x2="-161.911" y2="0.495" xlink:href="#linear-gradient-7"/>
    <linearGradient id="linear-gradient-37" x1="-167.097" y1="0.502" x2="-166.1" y2="0.502" xlink:href="#linear-gradient-2"/>
    <linearGradient id="linear-gradient-38" x1="-590.426" y1="0.493" x2="-589.408" y2="0.493" gradientUnits="objectBoundingBox">
      <stop offset="0" stop-color="#febbba"/>
      <stop offset="1" stop-color="#ff928e"/>
    </linearGradient>
    <linearGradient id="linear-gradient-39" x1="-432.414" y1="0.493" x2="-431.423" y2="0.493" xlink:href="#linear-gradient-7"/>
    <linearGradient id="linear-gradient-40" x1="-295.941" y1="0.504" x2="-294.945" y2="0.504" xlink:href="#linear-gradient-2"/>
    <linearGradient id="linear-gradient-41" x1="-495.755" y1="0.506" x2="-494.754" y2="0.506" xlink:href="#linear-gradient-38"/>
    <linearGradient id="linear-gradient-42" x1="-1.199" y1="2.185" x2="0.725" y2="0.283" xlink:href="#linear-gradient-7"/>
    <linearGradient id="linear-gradient-43" x1="-67.483" y1="-19.759" x2="-67.824" y2="-18.883" xlink:href="#linear-gradient-9"/>
    <linearGradient id="linear-gradient-44" x1="-364.672" y1="5.013" x2="-364.313" y2="4.205" xlink:href="#linear-gradient-7"/>
    <linearGradient id="linear-gradient-45" x1="-326.163" y1="0.099" x2="-328.542" y2="1.141" xlink:href="#linear-gradient-38"/>
    <linearGradient id="linear-gradient-46" x1="-151.747" y1="-34.546" x2="-152.501" y2="-33.021" xlink:href="#linear-gradient-9"/>
    <linearGradient id="linear-gradient-47" x1="-197.771" y1="-40.576" x2="-198.783" y2="-38.787" xlink:href="#linear-gradient-9"/>
    <linearGradient id="linear-gradient-48" x1="-167.811" y1="0.501" x2="-166.812" y2="0.501" xlink:href="#linear-gradient-38"/>
    <linearGradient id="linear-gradient-49" x1="-229.194" y1="-0.004" x2="-229.208" y2="1.883" xlink:href="#linear-gradient-38"/>
    <linearGradient id="linear-gradient-50" x1="-304.29" y1="57.734" x2="-305.813" y2="59.073" xlink:href="#linear-gradient-38"/>
    <linearGradient id="linear-gradient-51" x1="-170.159" y1="36.973" x2="-169.145" y2="36.973" xlink:href="#linear-gradient-2"/>
    <linearGradient id="linear-gradient-52" x1="-817.015" y1="164.266" x2="-813.772" y2="161.927" xlink:href="#linear-gradient-38"/>
    <linearGradient id="linear-gradient-53" x1="-468.123" y1="0.505" x2="-467.12" y2="0.505" xlink:href="#linear-gradient-38"/>
    <linearGradient id="linear-gradient-54" x1="-19.018" y1="-0.217" x2="-20.362" y2="1.836" xlink:href="#linear-gradient-8"/>
    <linearGradient id="linear-gradient-55" x1="0.001" y1="0.497" x2="1.001" y2="0.497" xlink:href="#linear-gradient-8"/>
    <linearGradient id="linear-gradient-56" x1="-90.918" y1="-50.109" x2="-91.407" y2="-47.881" xlink:href="#linear-gradient-38"/>
    <linearGradient id="linear-gradient-57" x1="-21.631" y1="-0.451" x2="-22.295" y2="1.453" xlink:href="#linear-gradient-38"/>
    <linearGradient id="linear-gradient-58" x1="-21.584" y1="-0.453" x2="-22.247" y2="1.454" xlink:href="#linear-gradient-38"/>
    <linearGradient id="linear-gradient-59" x1="-231.206" y1="-1.214" x2="-232.903" y2="3.838" xlink:href="#linear-gradient-38"/>
  </defs>
  <g id="Enmascarar_grupo_88" data-name="Enmascarar grupo 88" transform="translate(-915 -7629)" clip-path="url(#clip-path)">
    <g id="Illustration" transform="translate(915 7662.03)">
      <g id="Grupo_1018206" data-name="Grupo 1018206" transform="translate(0 0)">
        <path id="Trazado_719382" data-name="Trazado 719382" d="M239.529,263.378a90.141,90.141,0,0,1-13.909,11.7c-45.413,32.559-99.1,23.076-110.53,20.757-16.859-3.424-49.417-10.063-73.02-37.722C6.456,216.173,11.988,150.16,39.647,106.591c5.058-7.955,31.768-52.21,86.033-59.322,32.875-4.32,71.176,4.373,98.887,27.606C282.835,123.608,278.673,222.179,239.529,263.378Z" transform="translate(-10.645 -42.326)" fill="url(#linear-gradient)"/>
        <g id="Grupo_1018176" data-name="Grupo 1018176" transform="translate(2.295 7.892)">
          <g id="Grupo_1018174" data-name="Grupo 1018174" transform="translate(6.318)">
            <path id="Trazado_719383" data-name="Trazado 719383" d="M79.7,148.358a283.941,283.941,0,0,0,5.848,35.035h1.686a193.379,193.379,0,0,1-5.69-54.949c.948-22.18,6.269-49.049-3.688-61.9C69.637,55.846,34.55,54.265,23.012,54a1.73,1.73,0,0,0-1.37,2.792c4.425,5.69,13.7,18.808,14.488,30.24,1.054,15.12,12.591,26.974,24.024,31.926S77.8,127.706,79.7,148.358Z" transform="translate(-21.274 -54)" fill="#bdd0fb"/>
            <path id="Trazado_719384" data-name="Trazado 719384" d="M52.3,72.106a55,55,0,0,1,19.7,9.641,44.576,44.576,0,0,1,7.9,7.85,39.838,39.838,0,0,1,5.532,9.8l.474,1.317c.158.421.263.9.421,1.37.105.474.263.9.369,1.37l.369,1.317c.474,1.791.948,3.583,1.37,5.374.9,3.582,1.739,7.218,2.529,10.8,1.581,7.218,2.9,14.541,3.846,21.864a.32.32,0,1,1-.632.105h0c-.632-3.635-1.37-7.27-2.16-10.853-.79-3.635-1.581-7.218-2.423-10.8l-1.264-5.374-1.37-5.374c-.474-1.791-.9-3.583-1.37-5.374l-.369-1.317c-.105-.421-.263-.843-.369-1.317-.158-.421-.263-.9-.421-1.317l-.474-1.264a38.4,38.4,0,0,0-5.216-9.43,51.917,51.917,0,0,0-3.53-4.109l-.474-.421-.474-.474c-.316-.316-.632-.632-1-.948-.685-.58-1.37-1.212-2.055-1.739a51.715,51.715,0,0,0-9.062-5.953A57.029,57.029,0,0,0,52.2,72.633h0a.235.235,0,0,1-.158-.316C52.041,72.159,52.2,72.106,52.3,72.106Z" transform="translate(-36.183 -62.78)" fill="#fff"/>
          </g>
          <g id="Grupo_1018175" data-name="Grupo 1018175" transform="translate(0 70.733)">
            <path id="Trazado_719385" data-name="Trazado 719385" d="M74.121,228.641c6.006,8.956,5.216,14.014,5.426,18.229.053.738.053,1.844.158,3.108h1.633a35.4,35.4,0,0,1-.632-5.163c-.58-11.748-3.161-31.768-13.118-43.78s-20.81-13.066-34.561-2.16C21.6,207.936,14.483,212.52,10.269,213.415a1.613,1.613,0,0,0-1.054,2.371c2.687,5.058,10.273,16.6,23.023,15.752C48.412,230.432,68.115,219.685,74.121,228.641Z" transform="translate(-9.008 -191.319)" fill="#91b3fa"/>
            <path id="Trazado_719386" data-name="Trazado 719386" d="M64.468,225.714a31.369,31.369,0,0,1,2.845-2.423c1-.738,2-1.475,3.056-2.107a30.53,30.53,0,0,1,6.744-3.214,22.007,22.007,0,0,1,3.688-.843,15.232,15.232,0,0,1,3.793,0l.948.158c.316.053.632.158.948.211l1.791.58,1.739.685,1.686.843a22.077,22.077,0,0,1,5.9,4.689,27.72,27.72,0,0,1,4.109,6.322l.421.843a5.852,5.852,0,0,1,.369.843c.211.58.474,1.159.685,1.739l.58,1.791c.211.58.369,1.212.527,1.791a69.7,69.7,0,0,1,1.581,7.323.289.289,0,0,1-.211.316c-.105,0-.263-.053-.263-.211h0c-.58-2.423-1.106-4.794-1.9-7.165-.369-1.159-.79-2.318-1.212-3.477-.211-.58-.474-1.106-.738-1.686a5.855,5.855,0,0,0-.369-.843l-.421-.79a27.612,27.612,0,0,0-4.057-5.953,22.276,22.276,0,0,0-5.584-4.373l-1.581-.79-1.686-.632-1.686-.527a4.931,4.931,0,0,0-.843-.211c-.263-.053-.58-.105-.843-.158a12.809,12.809,0,0,0-3.477,0,16.391,16.391,0,0,0-3.477.738,34.543,34.543,0,0,0-6.585,2.845c-1.054.58-2.107,1.212-3.108,1.9s-2,1.37-2.95,2.16h0a.26.26,0,0,1-.369-.053C64.363,225.978,64.363,225.82,64.468,225.714Z" transform="translate(-35.865 -203.775)" fill="#fff"/>
          </g>
        </g>
        <g id="Grupo_1018178" data-name="Grupo 1018178" transform="translate(60.296)">
          <path id="Trazado_719387" data-name="Trazado 719387" d="M121.609,112.616a15.953,15.953,0,0,1,15.963-15.963H273.443a14.108,14.108,0,0,1,14.067,13.382l10.01,196.984a10.376,10.376,0,0,1-10.168,10.906l-155.68,2.845a9.806,9.806,0,0,1-10.01-9.852v-198.3Z" transform="translate(-121.609 -66.79)" fill="url(#linear-gradient-2)"/>
          <path id="Trazado_719388" data-name="Trazado 719388" d="M158.944,489.837h0l-17.438-.211a10.749,10.749,0,0,1-10.589-10.695V452.642a.369.369,0,0,1,.738,0v26.289a10,10,0,0,0,9.852,9.957l17.438.211a.369.369,0,0,1,0,.738Z" transform="translate(-126.122 -239.229)" fill="url(#linear-gradient-3)"/>
          <path id="Trazado_719389" data-name="Trazado 719389" d="M131.285,433.141a.36.36,0,0,1-.369-.369V428.5a.369.369,0,0,1,.738,0v4.267A.36.36,0,0,1,131.285,433.141Z" transform="translate(-126.122 -227.525)" fill="url(#linear-gradient-4)"/>
          <g id="Grupo_1018177" data-name="Grupo 1018177" transform="translate(11.169 28.241)">
            <path id="Trazado_719390" data-name="Trazado 719390" d="M143.291,98.182a4.654,4.654,0,0,1,5.268-4.636c18.545,2.529,82.345,10.273,135.134,6.269a4.293,4.293,0,0,1,4.636,4.057l10.537,197.88a4.946,4.946,0,0,1-4.636,5.216c-22.18,1.317-113.586,6.375-146.145,2.95a3.89,3.89,0,0,1-3.477-3.9Z" transform="translate(-143.291 -93.505)" fill="#7d97f4"/>
            <path id="Trazado_719391" data-name="Trazado 719391" d="M147.485,107.953a4.5,4.5,0,0,1,5.058-4.478c17.86,2.423,79.289,9.9,130.023,6.006a4.114,4.114,0,0,1,4.425,3.9l10.115,190.452a4.728,4.728,0,0,1-4.478,5C271.292,310.1,183.362,315,151.963,311.681a3.768,3.768,0,0,1-3.372-3.741Z" transform="translate(-145.325 -98.324)" fill="#91b3fa"/>
            <path id="Trazado_719392" data-name="Trazado 719392" d="M286.346,151.953H176.079a5.475,5.475,0,0,1-5.479-5.479V141.1a5.475,5.475,0,0,1,5.479-5.479H286.4a5.475,5.475,0,0,1,5.479,5.479v5.321A5.531,5.531,0,0,1,286.346,151.953Z" transform="translate(-156.533 -113.927)" fill="#fff" opacity="0.58"/>
            <path id="Trazado_719393" data-name="Trazado 719393" d="M290.474,307.943H173.094a3.114,3.114,0,0,1-3.108-3.108v-1.949a3.114,3.114,0,0,1,3.108-3.108H290.474a3.114,3.114,0,0,1,3.108,3.108v2A3.138,3.138,0,0,1,290.474,307.943Z" transform="translate(-156.236 -193.525)" fill="#fff" opacity="0.58"/>
            <path id="Trazado_719394" data-name="Trazado 719394" d="M291.317,332.387H172.251a2.249,2.249,0,0,1-2.265-2.265v-3.635a2.249,2.249,0,0,1,2.265-2.265H291.264a2.249,2.249,0,0,1,2.265,2.265v3.635A2.238,2.238,0,0,1,291.317,332.387Z" transform="translate(-156.236 -205.378)" fill="#fff" opacity="0.58"/>
            <path id="Trazado_719395" data-name="Trazado 719395" d="M293.629,472.049H172.93a2.721,2.721,0,0,1-2.74-2.74v-2.74a2.721,2.721,0,0,1,2.74-2.74h120.7a2.721,2.721,0,0,1,2.74,2.74v2.74A2.826,2.826,0,0,1,293.629,472.049Z" transform="translate(-156.335 -273.074)" fill="#fff" opacity="0.58"/>
            <path id="Trazado_719396" data-name="Trazado 719396" d="M290.523,236.242H173.039a2.945,2.945,0,0,1-2.95-2.95V189.3a2.945,2.945,0,0,1,2.95-2.95H288.521a2.959,2.959,0,0,1,2.95,2.845l2,43.991A2.968,2.968,0,0,1,290.523,236.242Z" transform="translate(-156.285 -138.525)" fill="#fff" opacity="0.25"/>
            <path id="Trazado_719397" data-name="Trazado 719397" d="M290.179,236.27H172.695a3.418,3.418,0,0,1-3.424-3.424V188.854a3.418,3.418,0,0,1,3.424-3.424H288.177A3.421,3.421,0,0,1,291.6,188.7l2,43.991a3.422,3.422,0,0,1-3.424,3.582ZM172.695,186.378a2.473,2.473,0,0,0-2.476,2.476v43.991a2.473,2.473,0,0,0,2.476,2.476H290.179a2.521,2.521,0,0,0,2.476-2.634l-2-43.991a2.488,2.488,0,0,0-2.476-2.371H172.695Z" transform="translate(-155.888 -138.079)" fill="#fff"/>
            <path id="Trazado_719398" data-name="Trazado 719398" d="M292.466,407.251H174.033a3.755,3.755,0,0,1-3.741-3.741V361.1a3.755,3.755,0,0,1,3.741-3.741h116.8a3.733,3.733,0,0,1,3.741,3.635l1.633,42.41A3.712,3.712,0,0,1,292.466,407.251Z" transform="translate(-156.384 -221.447)" fill="#fff" opacity="0.25"/>
            <path id="Trazado_719399" data-name="Trazado 719399" d="M292.02,407.279H173.587a4.227,4.227,0,0,1-4.215-4.215v-42.41a4.227,4.227,0,0,1,4.215-4.215h116.8A4.231,4.231,0,0,1,294.6,360.5l1.633,42.41a4.244,4.244,0,0,1-1.159,3.108A4.347,4.347,0,0,1,292.02,407.279ZM173.587,357.334a3.283,3.283,0,0,0-3.266,3.266v42.463a3.283,3.283,0,0,0,3.266,3.266H292.073a3.352,3.352,0,0,0,2.371-1,3.17,3.17,0,0,0,.9-2.423l-1.633-42.41a3.261,3.261,0,0,0-3.266-3.161Z" transform="translate(-155.938 -221.001)" fill="#fff"/>
            <rect id="Rectángulo_379862" data-name="Rectángulo 379862" width="0.948" height="49.946" transform="matrix(1, -0.017, 0.017, 1, 49.904, 47.839)" fill="#fff"/>
            <rect id="Rectángulo_379863" data-name="Rectángulo 379863" width="0.948" height="49.942" transform="matrix(1, -0.027, 0.027, 1, 95.1, 47.843)" fill="#fff"/>
            <rect id="Rectángulo_379864" data-name="Rectángulo 379864" width="85.032" height="0.948" transform="translate(50.785 63.08) rotate(-0.821)" fill="#fff"/>
            <rect id="Rectángulo_379865" data-name="Rectángulo 379865" width="85.506" height="0.948" transform="translate(50.998 81.912)" fill="#fff"/>
            <rect id="Rectángulo_379866" data-name="Rectángulo 379866" width="49.89" height="0.948" transform="translate(49.864 185.805) rotate(-89.291)" fill="#fff"/>
            <rect id="Rectángulo_379867" data-name="Rectángulo 379867" width="87.402" height="0.948" transform="translate(51.314 147.556)" fill="#fff"/>
            <rect id="Rectángulo_379868" data-name="Rectángulo 379868" width="88.298" height="0.948" transform="translate(50.682 159.041)" fill="#fff"/>
            <rect id="Rectángulo_379869" data-name="Rectángulo 379869" width="0.948" height="88.77" transform="translate(50.765 172.834) rotate(-89.285)" fill="#fff"/>
          </g>
          <path id="Trazado_719400" data-name="Trazado 719400" d="M285.4,41.673c-4.9-3.424-9.167-3.372-12.17-2.476a6.012,6.012,0,0,0-4.267,6.322l1.317,14.119,15.436,1.37C285.668,61.06,295.045,48.363,285.4,41.673Zm-6.8,11.432a3.846,3.846,0,1,1,3.846-3.846A3.867,3.867,0,0,1,278.608,53.1Z" transform="translate(-193.05 -38.679)" fill="url(#linear-gradient-5)"/>
          <path id="Trazado_719401" data-name="Trazado 719401" d="M273.6,55.765a.352.352,0,0,1-.369-.316l-.211-2.265a.373.373,0,1,1,.738-.105l.211,2.265a.447.447,0,0,1-.369.421Zm-.421-4.425a.352.352,0,0,1-.369-.316l-.158-1.686a5.762,5.762,0,0,1,4.057-6.006,11.348,11.348,0,0,1,5.637-.211.346.346,0,0,1,.263.421.326.326,0,0,1-.421.263,10.5,10.5,0,0,0-5.268.211,4.975,4.975,0,0,0-3.53,5.216l.158,1.686c.053.211-.105.369-.369.421Z" transform="translate(-194.834 -40.707)" fill="#91b3fa"/>
          <path id="Trazado_719402" data-name="Trazado 719402" d="M230.637,86.4V79.286a4.309,4.309,0,0,1,4.478-4.32l49,1.686a4.184,4.184,0,0,1,4.057,3.951l.421,6.849Z" transform="translate(-174.476 -56.272)" fill="url(#linear-gradient-6)"/>
          <path id="Trazado_719403" data-name="Trazado 719403" d="M263.8,79.492h-2.107a.369.369,0,0,1,0-.738H263.8a.36.36,0,0,1,.369.369A.4.4,0,0,1,263.8,79.492Z" transform="translate(-189.354 -58.111)" fill="#91b3fa"/>
          <path id="Trazado_719404" data-name="Trazado 719404" d="M235.506,86.024a.36.36,0,0,1-.369-.369v-2.9a4.014,4.014,0,0,1,4.057-4h7.745a.369.369,0,0,1,0,.738h-7.745a3.283,3.283,0,0,0-3.266,3.266v2.9A.51.51,0,0,1,235.506,86.024Z" transform="translate(-176.658 -58.111)" fill="#91b3fa"/>
          <path id="Trazado_719405" data-name="Trazado 719405" d="M191.72,96.525a4.592,4.592,0,0,1,4.636-4.373h85.716a6.338,6.338,0,0,1,6.269,5.268l.053.421a5.458,5.458,0,0,1-5.374,6.375H195.092a3.534,3.534,0,0,1-3.53-3.688Z" transform="translate(-155.526 -64.608)" fill="url(#linear-gradient-7)"/>
        </g>
        <g id="Grupo_1018188" data-name="Grupo 1018188" transform="translate(45.825 35.958)">
          <g id="Grupo_1018187" data-name="Grupo 1018187">
            <g id="Grupo_1018180" data-name="Grupo 1018180" transform="translate(0 43.869)">
              <circle id="Elipse_5906" data-name="Elipse 5906" cx="12.223" cy="12.223" r="12.223" transform="translate(1.036 1.192)" fill="url(#linear-gradient-8)"/>
              <circle id="Elipse_5907" data-name="Elipse 5907" cx="11.801" cy="11.801" r="11.801" transform="translate(1.458 1.613)" fill="url(#linear-gradient-9)"/>
              <path id="Trazado_719406" data-name="Trazado 719406" d="M98.345,207.186h-.158a.41.41,0,0,1-.316-.474,11.226,11.226,0,0,1,8.113-8.64,13.348,13.348,0,0,1,2-.369.4.4,0,1,1,.053.79,11.875,11.875,0,0,0-1.9.316,10.434,10.434,0,0,0-7.534,8.008C98.608,207.081,98.5,207.186,98.345,207.186Z" transform="translate(-95.622 -195.616)" fill="#fff" opacity="0.58"/>
              <circle id="Elipse_5908" data-name="Elipse 5908" cx="9.957" cy="9.957" r="9.957" transform="translate(0 17.278) rotate(-60.179)" fill="#fff" opacity="0.78"/>
              <g id="Grupo_1018179" data-name="Grupo 1018179" transform="translate(8.709 6.591)">
                <path id="Trazado_719407" data-name="Trazado 719407" d="M116.29,220.856l-.263-1.054a9.122,9.122,0,0,1-3.108.158.626.626,0,0,1-.527-.632v-1.054a.64.64,0,0,1,.738-.632,7.579,7.579,0,0,0,2.845-.158c1.054-.263,1.739-.843,1.528-1.581-.158-.685-.9-.9-2.476-.9-2.265,0-4-.527-4.478-2.371-.474-1.633.421-3.266,2.423-4.162l-.263-1.054a.656.656,0,0,1,.421-.79l.632-.158a.656.656,0,0,1,.79.421l.263.948a8.478,8.478,0,0,1,2.423-.211.633.633,0,0,1,.58.632v.948a.622.622,0,0,1-.685.632,7,7,0,0,0-2.423.211c-1.264.316-1.475.948-1.317,1.422.158.58,1,.738,2.792.843,2.529.053,3.741.79,4.215,2.476.421,1.581-.369,3.319-2.529,4.32l.316,1.159a.656.656,0,0,1-.421.79l-.632.158A.623.623,0,0,1,116.29,220.856Z" transform="translate(-110.423 -206.446)" fill="url(#linear-gradient-10)"/>
              </g>
            </g>
            <g id="Grupo_1018182" data-name="Grupo 1018182" transform="translate(14.695)">
              <circle id="Elipse_5909" data-name="Elipse 5909" cx="19.914" cy="19.914" r="19.914" transform="translate(2.568 2.808)" fill="url(#linear-gradient-11)"/>
              <circle id="Elipse_5910" data-name="Elipse 5910" cx="19.23" cy="19.23" r="19.23" transform="translate(3.253 3.493)" fill="url(#linear-gradient-12)"/>
              <path id="Trazado_719408" data-name="Trazado 719408" d="M131.631,132.374h-.158a.326.326,0,0,1-.263-.421A18.013,18.013,0,0,1,144.223,118.1a22.881,22.881,0,0,1,3.214-.58.373.373,0,0,1,.105.738,20.154,20.154,0,0,0-3.108.527,17.338,17.338,0,0,0-12.486,13.329A.54.54,0,0,1,131.631,132.374Z" transform="translate(-126.482 -112.865)" fill="#fff" opacity="0.58"/>
              <circle id="Elipse_5911" data-name="Elipse 5911" cx="16.279" cy="16.279" r="16.279" transform="translate(0 23.022) rotate(-45)" fill="#fff" opacity="0.78"/>
              <g id="Grupo_1018181" data-name="Grupo 1018181" transform="translate(15.127 11.829)">
                <path id="Trazado_719409" data-name="Trazado 719409" d="M160.926,154.725l-.474-1.686a14.081,14.081,0,0,1-5.058.263,1.019,1.019,0,0,1-.843-1v-1.686a1.01,1.01,0,0,1,1.159-1,13.115,13.115,0,0,0,4.689-.263c1.739-.474,2.845-1.37,2.529-2.581-.316-1.054-1.475-1.422-4-1.422-3.635,0-6.48-.843-7.323-3.846-.738-2.687.685-5.321,3.951-6.8l-.474-1.686a1.022,1.022,0,0,1,.738-1.264l1-.263a1.022,1.022,0,0,1,1.264.738l.421,1.528a14.738,14.738,0,0,1,4-.369,1.04,1.04,0,0,1,.948,1.054v1.581a.968.968,0,0,1-1.106,1,10.671,10.671,0,0,0-3.9.316c-2.055.527-2.371,1.581-2.16,2.318.263.948,1.633,1.264,4.531,1.317,4.109.105,6.111,1.264,6.849,4.057.685,2.582-.58,5.426-4.162,7.007l.527,1.9a1.022,1.022,0,0,1-.738,1.264l-1,.263A1.043,1.043,0,0,1,160.926,154.725Z" transform="translate(-151.411 -131.451)" fill="url(#linear-gradient-13)"/>
              </g>
            </g>
            <g id="Grupo_1018184" data-name="Grupo 1018184" transform="translate(41.55 41.531)">
              <circle id="Elipse_5912" data-name="Elipse 5912" cx="20.494" cy="20.494" r="20.494" fill="url(#linear-gradient-14)"/>
              <circle id="Elipse_5913" data-name="Elipse 5913" cx="19.809" cy="19.809" r="19.809" transform="translate(0.685 0.685)" fill="url(#linear-gradient-15)"/>
              <path id="Trazado_719410" data-name="Trazado 719410" d="M178.986,208.072h-.158a.326.326,0,0,1-.263-.421,18.521,18.521,0,0,1,13.382-14.277,18.267,18.267,0,0,1,3.319-.58.373.373,0,0,1,.105.738,17.177,17.177,0,0,0-3.214.58,17.779,17.779,0,0,0-12.855,13.7A.334.334,0,0,1,178.986,208.072Z" transform="translate(-176.299 -190.897)" fill="#fff" opacity="0.58"/>
              <circle id="Elipse_5914" data-name="Elipse 5914" cx="16.753" cy="16.753" r="16.753" transform="translate(4.113 37.363) rotate(-89.39)" fill="#fff" opacity="0.78"/>
              <g id="Grupo_1018183" data-name="Grupo 1018183" transform="translate(12.876 9.179)">
                <path id="Trazado_719411" data-name="Trazado 719411" d="M209.007,231l-.474-1.739a14.952,14.952,0,0,1-5.216.263,1.032,1.032,0,0,1-.9-1.054v-1.739a1.067,1.067,0,0,1,1.212-1.054,11.581,11.581,0,0,0,4.794-.263c1.791-.474,2.9-1.422,2.581-2.687-.316-1.106-1.475-1.475-4.109-1.475-3.741,0-6.691-.843-7.534-3.951-.738-2.792.685-5.479,4.109-7.007L203,208.553a1.053,1.053,0,0,1,.738-1.317l1.054-.263a1.053,1.053,0,0,1,1.317.738l.421,1.581a15.623,15.623,0,0,1,4.109-.369,1.078,1.078,0,0,1,.948,1.054v1.633a1.052,1.052,0,0,1-1.159,1.054,10.314,10.314,0,0,0-4,.369c-2.107.58-2.476,1.581-2.265,2.371.263.948,1.686,1.264,4.636,1.37,4.215.105,6.269,1.264,7.06,4.215.738,2.687-.58,5.584-4.267,7.218l.527,1.949a1.053,1.053,0,0,1-.738,1.317l-1.054.263A1.016,1.016,0,0,1,209.007,231Z" transform="translate(-199.176 -206.932)" fill="url(#linear-gradient-16)"/>
              </g>
            </g>
            <g id="Grupo_1018186" data-name="Grupo 1018186" transform="translate(60.258 4.653)">
              <circle id="Elipse_5915" data-name="Elipse 5915" cx="16.385" cy="16.385" r="16.385" transform="translate(1.206 1.368)" fill="url(#linear-gradient-17)"/>
              <circle id="Elipse_5916" data-name="Elipse 5916" cx="15.858" cy="15.858" r="15.858" transform="translate(1.733 1.895)" fill="url(#linear-gradient-18)"/>
              <path id="Trazado_719412" data-name="Trazado 719412" d="M216.528,135.372h-.211A.41.41,0,0,1,216,134.9a14.932,14.932,0,0,1,10.8-11.485,12,12,0,0,1,2.687-.474.4.4,0,1,1,.053.79,10.691,10.691,0,0,0-2.529.474,14.218,14.218,0,0,0-10.221,10.853C216.792,135.213,216.634,135.319,216.528,135.372Z" transform="translate(-213.162 -120.147)" fill="#fff" opacity="0.58"/>
              <circle id="Elipse_5917" data-name="Elipse 5917" cx="13.381" cy="13.381" r="13.381" transform="translate(0 12.201) rotate(-27.124)" fill="#fff" opacity="0.78"/>
              <g id="Grupo_1018185" data-name="Grupo 1018185" transform="translate(11.492 8.668)">
                <path id="Trazado_719413" data-name="Trazado 719413" d="M240.646,153.654l-.369-1.422a12.69,12.69,0,0,1-4.162.211.767.767,0,0,1-.685-.843v-1.422a.857.857,0,0,1,.948-.843,9.687,9.687,0,0,0,3.846-.211c1.422-.369,2.318-1.159,2.055-2.107-.263-.9-1.212-1.212-3.319-1.212-3,0-5.374-.685-6.006-3.161-.58-2.213.58-4.373,3.266-5.584l-.369-1.422a.9.9,0,0,1,.58-1.054l.843-.211a.9.9,0,0,1,1.054.58l.369,1.264a9.393,9.393,0,0,1,3.266-.263.9.9,0,0,1,.79.843v1.317a.832.832,0,0,1-.948.843,9.11,9.11,0,0,0-3.214.263c-1.686.474-1.949,1.264-1.791,1.9.211.79,1.37,1,3.741,1.106,3.372.105,5,1.054,5.637,3.372.58,2.107-.474,4.478-3.424,5.8l.421,1.581a.9.9,0,0,1-.58,1.054l-.843.211A.864.864,0,0,1,240.646,153.654Z" transform="translate(-232.808 -134.348)" fill="url(#linear-gradient-19)"/>
              </g>
            </g>
          </g>
        </g>
        <g id="Grupo_1018194" data-name="Grupo 1018194" transform="translate(0 125.692)">
          <g id="Grupo_1018192" data-name="Grupo 1018192">
            <g id="Grupo_1018189" data-name="Grupo 1018189">
              <path id="Trazado_719414" data-name="Trazado 719414" d="M6.37,289.438C5.79,310.459,3.893,382.9,4.789,408.556c.105,2.74,2.582,4.9,5.637,5,15.173.422,70.912,1.581,95.779.632,5.163-.211,9.272-3.9,9.378-8.482.527-22.074,1.633-84.083-1.054-112.48-.316-3.424-3.319-6.111-7.165-6.48-16.543-1.475-72.493-5.058-93.988-3.793C9.478,283.221,6.475,286.013,6.37,289.438Z" transform="translate(-4.553 -282.692)" fill="url(#linear-gradient-20)"/>
              <path id="Trazado_719415" data-name="Trazado 719415" d="M16.569,307.986v17.807a6.172,6.172,0,0,0,6.164,6.164h85.032a6.172,6.172,0,0,0,6.164-6.164V307.986a6.172,6.172,0,0,0-6.164-6.164H22.733A6.138,6.138,0,0,0,16.569,307.986Z" transform="translate(-10.379 -291.968)" fill="#91b3fa"/>
              <path id="Trazado_719416" data-name="Trazado 719416" d="M114.267,311.2a4.177,4.177,0,0,0-2.845-1.264l-79.605-1.264a4.074,4.074,0,0,0-4.109,3.688l-1.633,17.649c-.158,1.422,2.265,2.687,5.268,2.687l78.235.948c3,.053,5.532-1.106,5.532-2.581l.316-17.017A4.266,4.266,0,0,0,114.267,311.2Z" transform="translate(-14.985 -295.29)" fill="#fff" opacity="0.2"/>
            </g>
            <path id="Trazado_719417" data-name="Trazado 719417" d="M40.578,390.051a5.666,5.666,0,0,1-5.69,5.69h-6.9a5.666,5.666,0,0,1-5.69-5.69h0a5.666,5.666,0,0,1,5.69-5.69h6.9a5.666,5.666,0,0,1,5.69,5.69Z" transform="translate(-13.157 -331.991)" fill="url(#linear-gradient-21)"/>
            <path id="Trazado_719418" data-name="Trazado 719418" d="M90.542,390.051a5.666,5.666,0,0,1-5.69,5.69H77.9a5.666,5.666,0,0,1-5.69-5.69h0a5.666,5.666,0,0,1,5.69-5.69h6.9a5.711,5.711,0,0,1,5.743,5.69Z" transform="translate(-37.359 -331.991)" fill="url(#linear-gradient-22)"/>
            <path id="Trazado_719419" data-name="Trazado 719419" d="M138.56,390.051a5.666,5.666,0,0,1-5.69,5.69h-6.9a5.666,5.666,0,0,1-5.69-5.69h0a5.666,5.666,0,0,1,5.69-5.69h6.9a5.666,5.666,0,0,1,5.69,5.69Z" transform="translate(-60.668 -331.991)" fill="url(#linear-gradient-23)"/>
            <path id="Trazado_719420" data-name="Trazado 719420" d="M187.244,391.588a5.779,5.779,0,0,1-5.8,5.8h-6.691a5.779,5.779,0,0,1-5.8-5.8h0a5.779,5.779,0,0,1,5.8-5.8h6.691a5.812,5.812,0,0,1,5.8,5.8Z" transform="translate(-84.275 -332.685)" fill="url(#linear-gradient-24)"/>
            <path id="Trazado_719421" data-name="Trazado 719421" d="M40.578,424.62a5.666,5.666,0,0,1-5.69,5.69h-6.9a5.666,5.666,0,0,1-5.69-5.69h0a5.666,5.666,0,0,1,5.69-5.69h6.9a5.666,5.666,0,0,1,5.69,5.69Z" transform="translate(-13.157 -348.754)" fill="url(#linear-gradient-25)"/>
            <path id="Trazado_719422" data-name="Trazado 719422" d="M90.542,424.62a5.666,5.666,0,0,1-5.69,5.69H77.9a5.666,5.666,0,0,1-5.69-5.69h0a5.666,5.666,0,0,1,5.69-5.69h6.9a5.711,5.711,0,0,1,5.743,5.69Z" transform="translate(-37.359 -348.754)" fill="url(#linear-gradient-26)"/>
            <path id="Trazado_719423" data-name="Trazado 719423" d="M138.56,424.62a5.666,5.666,0,0,1-5.69,5.69h-6.9a5.666,5.666,0,0,1-5.69-5.69h0a5.666,5.666,0,0,1,5.69-5.69h6.9a5.666,5.666,0,0,1,5.69,5.69Z" transform="translate(-60.668 -348.754)" fill="url(#linear-gradient-27)"/>
            <path id="Trazado_719424" data-name="Trazado 719424" d="M188.472,424.62a5.666,5.666,0,0,1-5.69,5.69h-6.9a5.666,5.666,0,0,1-5.69-5.69h0a5.666,5.666,0,0,1,5.69-5.69h6.9a5.666,5.666,0,0,1,5.69,5.69Z" transform="translate(-84.87 -348.754)" fill="url(#linear-gradient-28)"/>
            <g id="Grupo_1018190" data-name="Grupo 1018190" transform="translate(9.14 85.929)">
              <path id="Trazado_719425" data-name="Trazado 719425" d="M40.578,455.2a5.666,5.666,0,0,1-5.69,5.69h-6.9a5.666,5.666,0,0,1-5.69-5.69h0a5.666,5.666,0,0,1,5.69-5.69h6.9a5.7,5.7,0,0,1,5.69,5.69Z" transform="translate(-22.297 -449.512)" opacity="0.63" fill="url(#linear-gradient-29)"/>
              <path id="Trazado_719426" data-name="Trazado 719426" d="M90.542,455.2a5.666,5.666,0,0,1-5.69,5.69H77.9a5.666,5.666,0,0,1-5.69-5.69h0a5.666,5.666,0,0,1,5.69-5.69h6.9a5.745,5.745,0,0,1,5.743,5.69Z" transform="translate(-46.499 -449.512)" opacity="0.63" fill="url(#linear-gradient-30)"/>
              <path id="Trazado_719427" data-name="Trazado 719427" d="M138.56,455.2a5.666,5.666,0,0,1-5.69,5.69h-6.9a5.666,5.666,0,0,1-5.69-5.69h0a5.666,5.666,0,0,1,5.69-5.69h6.9a5.7,5.7,0,0,1,5.69,5.69Z" transform="translate(-69.808 -449.512)" opacity="0.63" fill="url(#linear-gradient-31)"/>
            </g>
            <g id="Grupo_1018191" data-name="Grupo 1018191" transform="translate(9.14 103.262)">
              <path id="Trazado_719428" data-name="Trazado 719428" d="M40.578,488.851a5.666,5.666,0,0,1-5.69,5.69h-6.9a5.666,5.666,0,0,1-5.69-5.69h0a5.666,5.666,0,0,1,5.69-5.69h6.9a5.666,5.666,0,0,1,5.69,5.69Z" transform="translate(-22.297 -483.161)" opacity="0.63" fill="url(#linear-gradient-32)"/>
              <path id="Trazado_719429" data-name="Trazado 719429" d="M90.542,488.851a5.666,5.666,0,0,1-5.69,5.69H77.9a5.666,5.666,0,0,1-5.69-5.69h0a5.666,5.666,0,0,1,5.69-5.69h6.9a5.711,5.711,0,0,1,5.743,5.69Z" transform="translate(-46.499 -483.161)" opacity="0.63" fill="url(#linear-gradient-33)"/>
              <path id="Trazado_719430" data-name="Trazado 719430" d="M138.56,488.851a5.666,5.666,0,0,1-5.69,5.69h-6.9a5.666,5.666,0,0,1-5.69-5.69h0a5.666,5.666,0,0,1,5.69-5.69h6.9a5.666,5.666,0,0,1,5.69,5.69Z" transform="translate(-69.808 -483.161)" opacity="0.63" fill="url(#linear-gradient-34)"/>
            </g>
            <path id="Trazado_719431" data-name="Trazado 719431" d="M186.888,473.5a7.229,7.229,0,0,1-7.218,7.218h-.421a7.229,7.229,0,0,1-7.218-7.218V459.7a7.229,7.229,0,0,1,7.218-7.218h.421a7.229,7.229,0,0,1,7.218,7.218Z" transform="translate(-85.763 -365.021)" fill="url(#linear-gradient-35)"/>
          </g>
          <g id="Grupo_1018193" data-name="Grupo 1018193" transform="translate(83.371 17.282)" opacity="0.7">
            <path id="Trazado_719432" data-name="Trazado 719432" d="M176.091,317.455a1.225,1.225,0,0,1-1.212,1.212H171.4a1.225,1.225,0,0,1-1.212-1.212h0a1.225,1.225,0,0,1,1.212-1.212h3.477a1.192,1.192,0,0,1,1.212,1.212Z" transform="translate(-168.241 -316.244)" fill="#fff"/>
            <path id="Trazado_719433" data-name="Trazado 719433" d="M176.091,350.082a1.225,1.225,0,0,1-1.212,1.212H171.4a1.225,1.225,0,0,1-1.212-1.212h0a1.225,1.225,0,0,1,1.212-1.212h3.477a1.192,1.192,0,0,1,1.212,1.212Z" transform="translate(-168.241 -332.064)" fill="#fff"/>
            <path id="Trazado_719434" data-name="Trazado 719434" d="M168.83,327.58a1.225,1.225,0,0,1-1.212,1.212h0a1.225,1.225,0,0,1-1.212-1.212V324.1a1.225,1.225,0,0,1,1.212-1.212h0a1.225,1.225,0,0,1,1.212,1.212Z" transform="translate(-166.406 -319.467)" fill="#fff"/>
            <path id="Trazado_719435" data-name="Trazado 719435" d="M168.83,341.081a1.225,1.225,0,0,1-1.212,1.212h0a1.225,1.225,0,0,1-1.212-1.212V337.6a1.225,1.225,0,0,1,1.212-1.212h0a1.225,1.225,0,0,1,1.212,1.212Z" transform="translate(-166.406 -326.014)" fill="#fff"/>
            <path id="Trazado_719436" data-name="Trazado 719436" d="M185.194,327.58a1.225,1.225,0,0,1-1.212,1.212h0a1.225,1.225,0,0,1-1.212-1.212V324.1a1.225,1.225,0,0,1,1.212-1.212h0a1.225,1.225,0,0,1,1.212,1.212Z" transform="translate(-174.341 -319.467)" fill="#fff"/>
            <path id="Trazado_719437" data-name="Trazado 719437" d="M185.194,341.081a1.225,1.225,0,0,1-1.212,1.212h0a1.225,1.225,0,0,1-1.212-1.212V337.6a1.225,1.225,0,0,1,1.212-1.212h0a1.225,1.225,0,0,1,1.212,1.212Z" transform="translate(-174.341 -326.014)" fill="#fff"/>
          </g>
        </g>
        <g id="Grupo_1018205" data-name="Grupo 1018205" transform="translate(131.448 146.344)">
          <g id="Grupo_1018200" data-name="Grupo 1018200" transform="translate(50.073 8.484)">
            <g id="Grupo_1018195" data-name="Grupo 1018195" transform="translate(25.972 94.304)">
              <path id="Trazado_719438" data-name="Trazado 719438" d="M407.741,536.959c2.16.211,6.006.474,8.956.632a8.733,8.733,0,0,0,3.424-.316v.211a.585.585,0,0,1-.579.58,101.952,101.952,0,0,1-11.748,0,.461.461,0,0,1-.369-.685C407.53,537.223,407.636,537.117,407.741,536.959Z" transform="translate(-407.371 -529.426)" fill="url(#linear-gradient-36)"/>
              <path id="Trazado_719439" data-name="Trazado 719439" d="M417.045,533.426c-3-.105-6.8-.421-8.956-.632,2.16-2.634,8.956-4.425,8.956-4.425h1.949a8.316,8.316,0,0,1,1.528,4.689A7.962,7.962,0,0,1,417.045,533.426Z" transform="translate(-407.719 -525.26)" fill="url(#linear-gradient-37)"/>
              <path id="Trazado_719440" data-name="Trazado 719440" d="M426.552,522.334l-.158,3.582a.892.892,0,0,1-.685.79,3.427,3.427,0,0,1-1.422-.105,1,1,0,0,1-.632-.738l-.632-3.477h3.53Z" transform="translate(-414.96 -522.334)" fill="url(#linear-gradient-38)"/>
            </g>
            <g id="Grupo_1018197" data-name="Grupo 1018197" transform="translate(56.108 90.932)">
              <g id="Grupo_1018196" data-name="Grupo 1018196" transform="translate(0.799 3.319)">
                <path id="Trazado_719441" data-name="Trazado 719441" d="M475.332,537.1a1.852,1.852,0,0,0,1.581-1.159h0a1.215,1.215,0,0,1-.843,1.422,6.254,6.254,0,0,1-2.318.369,2.359,2.359,0,0,1-1.739-.79h0A6.391,6.391,0,0,0,475.332,537.1Z" transform="translate(-469.65 -528.877)" fill="url(#linear-gradient-39)"/>
                <path id="Trazado_719442" data-name="Trazado 719442" d="M468.63,522.231h1.581c2.423-.053,3.951,5.058,4.425,7.007a1.782,1.782,0,0,1-1.581,1.159,6.391,6.391,0,0,1-3.319-.158,15.09,15.09,0,0,1-2.265-5.69A2.08,2.08,0,0,1,468.63,522.231Z" transform="translate(-467.426 -522.231)" fill="url(#linear-gradient-40)"/>
              </g>
              <path id="Trazado_719443" data-name="Trazado 719443" d="M469.248,515.788l.9,3.53a.924.924,0,0,1-.474,1.054,3.092,3.092,0,0,1-1.844.421.816.816,0,0,1-.632-.527l-1.317-3.688Z" transform="translate(-465.876 -515.788)" fill="url(#linear-gradient-41)"/>
            </g>
            <path id="Trazado_719444" data-name="Trazado 719444" d="M442.529,470.868c-1.106.948-4.689,1.106-4.689,1.106-12.855-30.873-18.123-35.245-18.123-35.245,1.844,11.643.316,37.458.316,37.458a7.6,7.6,0,0,1-4.847,0,197.579,197.579,0,0,0-6.585-48.838c8.693-.211,13.329-3.161,14.8-4.373C430.675,432.619,442.529,470.868,442.529,470.868Z" transform="translate(-381.995 -378.882)" fill="url(#linear-gradient-42)"/>
            <path id="Trazado_719445" data-name="Trazado 719445" d="M410.284,351.84c1.633,8.219,1.054,22.917.685,29.608-.105,1.9,1.212,4.478,2.265,6.269a.6.6,0,0,1-.211.79,39.4,39.4,0,0,1-14.8,4.109,1.027,1.027,0,0,1-1-.738A191.748,191.748,0,0,0,386,360.164C392.635,349.522,410.284,351.84,410.284,351.84Z" transform="translate(-371.035 -345.254)" fill="url(#linear-gradient-43)"/>
            <path id="Trazado_719446" data-name="Trazado 719446" d="M423.546,445.325a.317.317,0,0,0,.211-.053.424.424,0,0,0,.158-.58,12.955,12.955,0,0,0-5.11-4.425.4.4,0,0,0-.316.738,12.217,12.217,0,0,1,4.742,4.109A.356.356,0,0,0,423.546,445.325Z" transform="translate(-386.668 -388.216)" fill="url(#linear-gradient-44)"/>
            <g id="Grupo_1018198" data-name="Grupo 1018198" transform="translate(37.405 6.585)">
              <path id="Trazado_719447" data-name="Trazado 719447" d="M447.143,397.237a28.308,28.308,0,0,1-5.216,12.433l-1.212-.948a36.51,36.51,0,0,0,.58-11.854A13.437,13.437,0,0,1,447.143,397.237Z" transform="translate(-434.973 -373.687)" fill="url(#linear-gradient-45)"/>
              <path id="Trazado_719448" data-name="Trazado 719448" d="M429.568,362.156l1.844-10.115s12.275,9.378,10.326,23.55a14.082,14.082,0,0,0-5.8-.421C435.363,370.638,433.677,365.686,429.568,362.156Z" transform="translate(-429.568 -352.041)" fill="url(#linear-gradient-46)"/>
            </g>
            <g id="Grupo_1018199" data-name="Grupo 1018199" transform="translate(0 14.857)">
              <path id="Trazado_719449" data-name="Trazado 719449" d="M381.782,368.1l4.742,10.221c-.79,6.164-4.057,8.851-7.639,9.852a22.288,22.288,0,0,0-1.581-6.638C381.834,376.844,381.782,368.1,381.782,368.1Z" transform="translate(-366.819 -368.098)" fill="url(#linear-gradient-47)"/>
              <path id="Trazado_719450" data-name="Trazado 719450" d="M367.434,394.179a20.774,20.774,0,0,1,1.581,6.638c-9.536,3.688-12.065-3.477-12.065-3.477l1.739-.316A10.057,10.057,0,0,0,367.434,394.179Z" transform="translate(-356.95 -380.745)" fill="url(#linear-gradient-48)"/>
            </g>
            <path id="Trazado_719451" data-name="Trazado 719451" d="M394.486,341.521l2.265,8.429a1.653,1.653,0,0,0,2.213,1.106,30.191,30.191,0,0,0,3.319-1.528,2.186,2.186,0,0,0,.79-3.161l-4.742-7.112Z" transform="translate(-375.151 -339.256)" fill="url(#linear-gradient-49)"/>
          </g>
          <g id="Grupo_1018201" data-name="Grupo 1018201" transform="translate(61.95)">
            <path id="Trazado_719452" data-name="Trazado 719452" d="M384.77,330.008c0,.158,1.9,9.588,1.9,9.588l5.374-1.212-.474-9.22S385.086,327.585,384.77,330.008Z" transform="translate(-382.316 -325.633)" fill="url(#linear-gradient-50)"/>
            <path id="Trazado_719453" data-name="Trazado 719453" d="M388.045,328.372l.632,4.847v.211c-.053.369-.316,1.686-1.633,1.317a5.841,5.841,0,0,0-3-.369.711.711,0,0,0-.474.79,34.789,34.789,0,0,0,1.212,4.425.69.69,0,0,0,.843.421,23.8,23.8,0,0,0,4.742-1.949.6.6,0,0,0,.316-.632,56.56,56.56,0,0,1-.053-5.953c.105-1,1.317-1.581,1.844-1.791a.636.636,0,0,0,.369-.369,1.76,1.76,0,0,0-1.212-2.581.665.665,0,0,1-.421-.9,1.736,1.736,0,0,0-1-2.423,2.493,2.493,0,0,0-3,.738.709.709,0,0,1-.9.105.549.549,0,0,0-.632,0,.69.69,0,0,1-.948-.263,1.982,1.982,0,0,0-2.371-1.159c-2.423.421-2.687,3.056-2.055,4.636s3.214.948,4.531.158c1-.58,2.265.053,2.845.369C387.887,328,387.992,328.161,388.045,328.372Z" transform="translate(-380.007 -322.785)" fill="url(#linear-gradient-51)"/>
            <path id="Trazado_719454" data-name="Trazado 719454" d="M400.628,339.265s-1-2.792.053-3.477c1-.685,2.529-.316,2.213,1.686C402.419,340,400.628,339.265,400.628,339.265Z" transform="translate(-389.797 -328.937)" fill="url(#linear-gradient-52)"/>
          </g>
          <path id="Trazado_719455" data-name="Trazado 719455" d="M354.867,398.9c-.474.369-2.107-.421-3.108-.948a1.205,1.205,0,0,1-.579-1.37c.263-.738.632-1.739,1.159-1.9C353.129,394.527,356.817,397.372,354.867,398.9Z" transform="translate(-304.056 -357.646)" fill="url(#linear-gradient-53)"/>
          <g id="Grupo_1018204" data-name="Grupo 1018204" transform="translate(0 25.65)">
            <g id="Grupo_1018203" data-name="Grupo 1018203">
              <path id="Trazado_719456" data-name="Trazado 719456" d="M409.716,413.64l-95.779-34.086-5.058,14.067,95.726,35.035a4.454,4.454,0,0,0,5.374-1.949,18.835,18.835,0,0,0,2.265-9.43A3.776,3.776,0,0,0,409.716,413.64Z" transform="translate(-283.568 -375.963)" fill="url(#linear-gradient-54)"/>
              <g id="Grupo_1018202" data-name="Grupo 1018202">
                <path id="Trazado_719457" data-name="Trazado 719457" d="M260.5,372.591l13.224,1.633a11.743,11.743,0,0,1-2.634,6.9l-11.064-7.27A.7.7,0,0,1,260.5,372.591Z" transform="translate(-259.74 -372.582)" fill="url(#linear-gradient-55)"/>
                <path id="Trazado_719458" data-name="Trazado 719458" d="M300.795,377.722a18.359,18.359,0,0,1-5.058,14.067l-13.961-9.22a11.626,11.626,0,0,0,2.634-6.9Z" transform="translate(-270.425 -374.078)" fill="url(#linear-gradient-56)"/>
              </g>
            </g>
            <path id="Trazado_719459" data-name="Trazado 719459" d="M415.878,423.05a.269.269,0,0,0,.263-.211.272.272,0,0,0-.158-.369l-91.617-32.4a.284.284,0,1,0-.211.527l91.617,32.453Z" transform="translate(-290.889 -381.052)" fill="url(#linear-gradient-57)"/>
            <path id="Trazado_719460" data-name="Trazado 719460" d="M412.761,433.838a.269.269,0,0,0,.263-.211.272.272,0,0,0-.158-.369L321.2,400.911a.284.284,0,1,0-.211.527l91.67,32.4Z" transform="translate(-289.352 -386.309)" fill="url(#linear-gradient-58)"/>
          </g>
          <path id="Trazado_719461" data-name="Trazado 719461" d="M434.25,419.2l-5.532-.474-2.423,2.213s.58.79,2.318.316a23.967,23.967,0,0,1,4.215-.58s2.476,1.106,2.476-.948Z" transform="translate(-340.502 -369.307)" fill="url(#linear-gradient-59)"/>
        </g>
      </g>
    </g>
  </g>
</svg>
